# Blender 4.0.2
# www.blender.org
mtllib Meteor.mtl
o Icosphere
v 0.084243 0.180190 0.259278
v -0.220556 0.180190 0.160241
v -0.220556 0.180190 -0.160241
v 0.084243 0.180190 -0.259278
v 0.272621 0.180189 0.000000
v 0.000000 0.282647 0.000000
v 0.283826 0.162671 0.021363
v 0.291580 0.140949 0.044994
v 0.882132 0.034666 0.209435
v 0.869647 0.019944 0.282561
v 0.836766 0.006777 0.349060
v 0.836766 0.006777 -0.349060
v 0.869647 0.019944 -0.282561
v 0.882132 0.034666 -0.209435
v 0.291579 0.140949 -0.044994
v 0.283826 0.162671 -0.021363
v 0.067388 0.162672 0.276536
v 0.047310 0.140950 0.291213
v 0.073404 0.034666 0.903677
v -0.000000 0.019944 0.914400
v -0.073404 0.006777 0.903677
v 0.590555 0.006777 0.687942
v 0.537471 0.019944 0.739765
v 0.471781 0.034666 0.774237
v 0.132895 0.140950 0.263404
v 0.108024 0.162672 0.263333
v -0.242178 0.162672 0.149544
v -0.262341 0.140949 0.134983
v -0.836766 0.034666 0.349060
v -0.869647 0.019944 0.282561
v -0.882132 0.006777 0.209435
v -0.471781 0.006777 0.774237
v -0.537471 0.019944 0.739765
v -0.590555 0.034666 0.687942
v -0.209446 0.140950 0.207787
v -0.217063 0.162672 0.184111
v -0.217063 0.162672 -0.184111
v -0.209446 0.140950 -0.207787
v -0.590556 0.034666 -0.687942
v -0.537471 0.019944 -0.739765
v -0.471781 0.006777 -0.774237
v -0.882132 0.006777 -0.209435
v -0.869647 0.019944 -0.282561
v -0.836766 0.034666 -0.349060
v -0.262341 0.140949 -0.134983
v -0.242178 0.162672 -0.149544
v 0.108024 0.162672 -0.263333
v 0.132895 0.140950 -0.263404
v 0.471781 0.034666 -0.774237
v 0.537471 0.019944 -0.739765
v 0.590555 0.006777 -0.687942
v -0.073404 0.006777 -0.903677
v -0.000000 0.019944 -0.914400
v 0.073404 0.034666 -0.903677
v 0.047310 0.140950 -0.291213
v 0.067388 0.162672 -0.276536
v 0.265653 0.185776 0.034567
v 0.253304 0.190435 0.072803
v 0.234657 0.194043 0.112959
v 0.209760 0.195169 0.152399
v 0.179943 0.194043 0.188265
v 0.147514 0.190436 0.218409
v 0.114965 0.185777 0.241969
v 0.049215 0.185777 0.263332
v 0.009034 0.190436 0.263403
v -0.034919 0.194043 0.258078
v -0.080122 0.195170 0.246587
v -0.123447 0.194043 0.229313
v -0.162136 0.190436 0.207786
v -0.194600 0.185777 0.184111
v -0.235236 0.185777 0.128180
v -0.247720 0.190436 0.089988
v -0.256237 0.194043 0.046541
v -0.259277 0.195169 -0.000000
v -0.256237 0.194043 -0.046541
v -0.247720 0.190436 -0.089988
v -0.235236 0.185777 -0.128180
v -0.194600 0.185777 -0.184111
v -0.162136 0.190436 -0.207786
v -0.123447 0.194043 -0.229313
v -0.080122 0.195170 -0.246587
v -0.034919 0.194043 -0.258078
v 0.009034 0.190436 -0.263403
v 0.049215 0.185777 -0.263332
v 0.114965 0.185777 -0.241969
v 0.147514 0.190436 -0.218409
v 0.179943 0.194043 -0.188265
v 0.209760 0.195169 -0.152399
v 0.234657 0.194043 -0.112959
v 0.253304 0.190435 -0.072803
v 0.265653 0.185776 -0.034567
v 0.011231 0.281334 0.034567
v 0.023655 0.276750 0.072802
v 0.036702 0.268104 0.112958
v 0.049516 0.255170 0.152399
v 0.061170 0.238566 0.188265
v 0.070964 0.219637 0.218408
v 0.078619 0.199825 0.241969
v 0.254421 0.199824 0.000000
v 0.229649 0.219636 0.000000
v 0.197954 0.238565 0.000000
v 0.160242 0.255170 0.000000
v 0.118772 0.268104 0.000000
v 0.076550 0.276750 0.000000
v 0.036346 0.281334 0.000000
v -0.029404 0.281334 0.021363
v -0.061930 0.276750 0.044994
v -0.096088 0.268104 0.069812
v -0.129638 0.255170 0.094187
v -0.160148 0.238566 0.116353
v -0.185790 0.219637 0.134983
v -0.205831 0.199825 0.149543
v -0.029404 0.281334 -0.021363
v -0.061930 0.276750 -0.044994
v -0.096088 0.268104 -0.069812
v -0.129638 0.255170 -0.094187
v -0.160148 0.238566 -0.116353
v -0.185790 0.219637 -0.134983
v -0.205831 0.199825 -0.149543
v 0.011231 0.281334 -0.034567
v 0.023655 0.276750 -0.072802
v 0.036702 0.268104 -0.112958
v 0.049516 0.255170 -0.152399
v 0.061170 0.238566 -0.188265
v 0.070964 0.219637 -0.218408
v 0.078619 0.199825 -0.241969
v 0.050657 0.278723 -0.036804
v 0.093625 0.272198 -0.038563
v 0.065607 0.272198 -0.077125
v 0.137579 0.261094 -0.039542
v 0.110277 0.263224 -0.080121
v 0.080120 0.261094 -0.118626
v 0.179156 0.245584 -0.039542
v 0.154451 0.249514 -0.081200
v 0.124953 0.249514 -0.121799
v 0.092968 0.245584 -0.158168
v 0.215267 0.226819 -0.038563
v 0.194521 0.231796 -0.080121
v 0.167642 0.233589 -0.121800
v 0.136309 0.231797 -0.160242
v 0.103196 0.226820 -0.192814
v 0.244151 0.206380 -0.036805
v 0.227797 0.211535 -0.077126
v 0.204852 0.214563 -0.118626
v 0.176123 0.214563 -0.158169
v 0.143743 0.211536 -0.192815
v 0.110449 0.206381 -0.220828
v -0.019350 0.278723 -0.059551
v -0.007744 0.272198 -0.100958
v -0.053077 0.272198 -0.086228
v 0.004907 0.261094 -0.143064
v -0.042123 0.263224 -0.129637
v -0.088062 0.261094 -0.112856
v 0.017754 0.245584 -0.182606
v -0.029498 0.249514 -0.171983
v -0.077226 0.249514 -0.156475
v -0.121698 0.245584 -0.137294
v 0.029844 0.226820 -0.216647
v -0.016090 0.231797 -0.209759
v -0.064035 0.233589 -0.197075
v -0.110278 0.231797 -0.179155
v -0.151488 0.226820 -0.157728
v 0.040442 0.206381 -0.243574
v -0.002959 0.211536 -0.240481
v -0.049519 0.214564 -0.231483
v -0.096003 0.214564 -0.216379
v -0.138959 0.211536 -0.196291
v -0.175890 0.206381 -0.173283
v -0.062616 0.278723 0.000000
v -0.098410 0.272198 -0.023833
v -0.098410 0.272198 0.023833
v -0.134546 0.261094 -0.048876
v -0.136310 0.263224 0.000000
v -0.134546 0.261094 0.048876
v -0.168182 0.245584 -0.073314
v -0.172681 0.249514 -0.025092
v -0.172681 0.249514 0.025092
v -0.168182 0.245584 0.073314
v -0.196821 0.226820 -0.095332
v -0.204465 0.231797 -0.049517
v -0.207218 0.233589 0.000000
v -0.204465 0.231797 0.049517
v -0.196821 0.226820 0.095332
v -0.219156 0.206381 -0.113732
v -0.229625 0.211535 -0.071499
v -0.235456 0.214563 -0.024438
v -0.235456 0.214563 0.024438
v -0.229625 0.211535 0.071499
v -0.219156 0.206381 0.113732
v -0.019350 0.278723 0.059551
v -0.053077 0.272198 0.086228
v -0.007744 0.272198 0.100958
v -0.088062 0.261094 0.112856
v -0.042123 0.263224 0.129637
v 0.004907 0.261094 0.143064
v -0.121698 0.245584 0.137294
v -0.077226 0.249514 0.156475
v -0.029498 0.249514 0.171983
v 0.017754 0.245584 0.182606
v -0.151488 0.226820 0.157728
v -0.110278 0.231797 0.179155
v -0.064035 0.233589 0.197075
v -0.016090 0.231797 0.209759
v 0.029844 0.226820 0.216647
v -0.175890 0.206381 0.173283
v -0.138959 0.211536 0.196291
v -0.096003 0.214564 0.216379
v -0.049519 0.214564 0.231483
v -0.002959 0.211536 0.240480
v 0.040442 0.206381 0.243574
v 0.050657 0.278723 0.036804
v 0.065607 0.272198 0.077125
v 0.093625 0.272198 0.038563
v 0.080120 0.261094 0.118626
v 0.110277 0.263224 0.080121
v 0.137579 0.261094 0.039542
v 0.092968 0.245584 0.158168
v 0.124953 0.249514 0.121799
v 0.154451 0.249514 0.081200
v 0.179156 0.245584 0.039542
v 0.103196 0.226820 0.192814
v 0.136309 0.231797 0.160242
v 0.167642 0.233589 0.121800
v 0.194521 0.231796 0.080121
v 0.215267 0.226819 0.038563
v 0.110449 0.206381 0.220828
v 0.143743 0.211536 0.192815
v 0.176123 0.214563 0.158169
v 0.204852 0.214563 0.118626
v 0.227797 0.211535 0.077126
v 0.244151 0.206380 0.036805
v 0.275460 0.166881 -0.059551
v 0.280876 0.144151 -0.086229
v 0.260602 0.170902 -0.100959
v 0.840202 0.036631 -0.338570
v 0.262678 0.146807 -0.129638
v 0.238490 0.173082 -0.143064
v 0.816381 0.020710 -0.411885
v 0.774186 0.037448 -0.469427
v 0.236717 0.147484 -0.171984
v 0.209760 0.173082 -0.182607
v 0.772933 0.006796 -0.473185
v 0.739767 0.020571 -0.537468
v 0.685692 0.037448 -0.591229
v 0.204466 0.146807 -0.209760
v 0.176548 0.170903 -0.216648
v 0.688880 0.006796 -0.588875
v 0.644006 0.020710 -0.649141
v 0.581639 0.036631 -0.694453
v 0.168804 0.144151 -0.240482
v 0.141758 0.166882 -0.243575
v 0.028484 0.166882 -0.280380
v 0.004785 0.144151 -0.293775
v -0.015489 0.170903 -0.279044
v -0.062367 0.036631 -0.903703
v -0.042123 0.146807 -0.289882
v -0.062367 0.173082 -0.271026
v -0.139454 0.020710 -0.903704
v -0.207220 0.037448 -0.881354
v -0.090418 0.147484 -0.278277
v -0.108851 0.173082 -0.255922
v -0.211179 0.006796 -0.881325
v -0.282565 0.020571 -0.869646
v -0.350404 0.037448 -0.834831
v -0.136311 0.146807 -0.259278
v -0.151489 0.170903 -0.234855
v -0.347180 0.006796 -0.837136
v -0.418363 0.020710 -0.813081
v -0.480729 0.036631 -0.767768
v -0.176549 0.144151 -0.234855
v -0.187849 0.166882 -0.210088
v -0.257855 0.166882 -0.113732
v -0.277918 0.144151 -0.095332
v -0.270173 0.170902 -0.071499
v -0.878746 0.036631 -0.219943
v -0.288711 0.146807 -0.049517
v -0.277033 0.173081 -0.024438
v -0.902567 0.020710 -0.146629
v -0.902252 0.037448 -0.075276
v -0.292598 0.147484 0.000000
v -0.277033 0.173081 0.024438
v -0.903448 0.006797 -0.071499
v -0.914400 0.020571 0.000000
v -0.902252 0.037448 0.075276
v -0.288710 0.146807 0.049517
v -0.270173 0.170902 0.071499
v -0.903448 0.006797 0.071499
v -0.902567 0.020710 0.146629
v -0.878745 0.036631 0.219944
v -0.277918 0.144151 0.095332
v -0.257855 0.166882 0.113732
v -0.187849 0.166882 0.210088
v -0.176549 0.144151 0.234855
v -0.151489 0.170903 0.234854
v -0.480730 0.036631 0.767768
v -0.136311 0.146807 0.259278
v -0.108851 0.173082 0.255922
v -0.418363 0.020710 0.813080
v -0.350405 0.037448 0.834830
v -0.090418 0.147484 0.278277
v -0.062367 0.173082 0.271026
v -0.347180 0.006796 0.837135
v -0.282565 0.020571 0.869646
v -0.207220 0.037448 0.881354
v -0.042123 0.146807 0.289882
v -0.015489 0.170903 0.279044
v -0.211179 0.006796 0.881325
v -0.139454 0.020710 0.903703
v -0.062367 0.036631 0.903703
v 0.004785 0.144151 0.293775
v 0.028484 0.166882 0.280380
v 0.141758 0.166882 0.243575
v 0.168804 0.144151 0.240482
v 0.176548 0.170903 0.216648
v 0.581639 0.036631 0.694453
v 0.204466 0.146807 0.209760
v 0.209760 0.173082 0.182607
v 0.644006 0.020710 0.649141
v 0.685692 0.037448 0.591229
v 0.236717 0.147484 0.171984
v 0.238490 0.173081 0.143065
v 0.688880 0.006796 0.588876
v 0.739767 0.020571 0.537469
v 0.774185 0.037447 0.469429
v 0.262678 0.146807 0.129639
v 0.260602 0.170902 0.100959
v 0.772933 0.006796 0.473186
v 0.816381 0.020710 0.411886
v 0.840202 0.036631 0.338571
v 0.280876 0.144151 0.086229
v 0.275460 0.166881 0.059551
v 0.091100 0.141800 -0.280380
v 0.347180 0.035411 -0.837136
v 0.211179 0.035411 -0.881325
v 0.418363 0.019200 -0.813081
v 0.282565 0.019658 -0.869646
v 0.139454 0.019201 -0.903703
v 0.480730 0.004941 -0.767768
v 0.350405 0.004779 -0.834830
v 0.207220 0.004779 -0.881354
v 0.062367 0.004941 -0.903703
v -0.238506 0.141800 -0.173283
v -0.688880 0.035411 -0.588876
v -0.772933 0.035411 -0.473185
v -0.644005 0.019200 -0.649141
v -0.739767 0.019658 -0.537469
v -0.816381 0.019201 -0.411886
v -0.581638 0.004941 -0.694454
v -0.685691 0.004779 -0.591230
v -0.774185 0.004779 -0.469429
v -0.840202 0.004941 -0.338571
v -0.238506 0.141800 0.173283
v -0.772933 0.035411 0.473185
v -0.688880 0.035411 0.588876
v -0.816381 0.019200 0.411885
v -0.739767 0.019658 0.537469
v -0.644005 0.019200 0.649141
v -0.840202 0.004941 0.338571
v -0.774185 0.004779 0.469429
v -0.685691 0.004779 0.591230
v -0.581638 0.004941 0.694454
v 0.091100 0.141800 0.280380
v 0.211179 0.035411 0.881325
v 0.347180 0.035411 0.837135
v 0.139454 0.019201 0.903703
v 0.282565 0.019658 0.869646
v 0.418363 0.019200 0.813080
v 0.062367 0.004941 0.903703
v 0.207220 0.004779 0.881354
v 0.350405 0.004779 0.834830
v 0.480730 0.004941 0.767768
v 0.294809 0.141799 0.000000
v 0.903448 0.035411 0.071499
v 0.903448 0.035411 -0.071499
v 0.902567 0.019201 0.146629
v 0.914400 0.019659 -0.000000
v 0.902567 0.019201 -0.146629
v 0.878746 0.004941 0.219943
v 0.902252 0.004779 0.075276
v 0.902252 0.004779 -0.075276
v 0.878746 0.004941 -0.219943
v 0.291580 -0.102548 -0.044994
v 0.882132 0.003735 -0.209435
v 0.869647 0.018457 -0.282561
v 0.836766 0.031624 -0.349060
v 0.836766 0.031624 0.349060
v 0.869647 0.018457 0.282561
v 0.882132 0.003735 0.209435
v 0.291579 -0.102548 0.044994
v 0.047310 -0.102548 -0.291213
v 0.073404 0.003735 -0.903677
v -0.000000 0.018457 -0.914400
v -0.073404 0.031624 -0.903677
v 0.590555 0.031624 -0.687942
v 0.537471 0.018457 -0.739765
v 0.471781 0.003735 -0.774237
v 0.132895 -0.102548 -0.263404
v -0.262341 -0.102548 -0.134983
v -0.836766 0.003735 -0.349060
v -0.869647 0.018457 -0.282561
v -0.882132 0.031624 -0.209435
v -0.471781 0.031624 -0.774237
v -0.537471 0.018457 -0.739765
v -0.590555 0.003735 -0.687942
v -0.209446 -0.102548 -0.207787
v -0.209446 -0.102548 0.207787
v -0.590556 0.003735 0.687942
v -0.537471 0.018457 0.739765
v -0.471781 0.031624 0.774237
v -0.882132 0.031624 0.209435
v -0.869647 0.018457 0.282561
v -0.836766 0.003735 0.349060
v -0.262341 -0.102548 0.134983
v 0.132895 -0.102548 0.263405
v 0.471781 0.003735 0.774237
v 0.537471 0.018457 0.739765
v 0.590555 0.031624 0.687942
v -0.073404 0.031624 0.903677
v -0.000000 0.018457 0.914400
v 0.073404 0.003735 0.903677
v 0.047310 -0.102548 0.291213
v 0.280876 -0.105750 0.086229
v 0.840202 0.001770 0.338570
v 0.262678 -0.108406 0.129638
v 0.816381 0.017691 0.411885
v 0.774186 0.000953 0.469427
v 0.236717 -0.109083 0.171984
v 0.772933 0.031605 0.473185
v 0.739767 0.017830 0.537468
v 0.685692 0.000953 0.591229
v 0.204466 -0.108406 0.209760
v 0.688880 0.031605 0.588876
v 0.644006 0.017691 0.649141
v 0.581639 0.001770 0.694453
v 0.168804 -0.105750 0.240482
v 0.004785 -0.105750 0.293775
v -0.062367 0.001770 0.903703
v -0.042123 -0.108406 0.289882
v -0.139454 0.017691 0.903704
v -0.207220 0.000954 0.881355
v -0.090418 -0.109083 0.278277
v -0.211179 0.031605 0.881325
v -0.282565 0.017830 0.869646
v -0.350404 0.000954 0.834831
v -0.136311 -0.108406 0.259278
v -0.347180 0.031605 0.837136
v -0.418363 0.017691 0.813081
v -0.480729 0.001770 0.767769
v -0.176549 -0.105750 0.234855
v -0.277918 -0.105750 0.095332
v -0.878746 0.001770 0.219943
v -0.288711 -0.108406 0.049517
v -0.902567 0.017691 0.146629
v -0.902252 0.000954 0.075276
v -0.292598 -0.109083 0.000000
v -0.903448 0.031605 0.071499
v -0.914400 0.017830 -0.000000
v -0.902252 0.000954 -0.075276
v -0.288710 -0.108406 -0.049517
v -0.903448 0.031605 -0.071499
v -0.902567 0.017691 -0.146629
v -0.878745 0.001770 -0.219944
v -0.277918 -0.105750 -0.095332
v -0.176549 -0.105750 -0.234855
v -0.480730 0.001770 -0.767768
v -0.136311 -0.108406 -0.259278
v -0.418363 0.017692 -0.813080
v -0.350405 0.000954 -0.834830
v -0.090418 -0.109083 -0.278276
v -0.347180 0.031605 -0.837135
v -0.282565 0.017831 -0.869646
v -0.207220 0.000954 -0.881354
v -0.042123 -0.108406 -0.289882
v -0.211179 0.031605 -0.881325
v -0.139454 0.017692 -0.903703
v -0.062367 0.001770 -0.903703
v 0.004785 -0.105750 -0.293775
v 0.168804 -0.105750 -0.240482
v 0.581639 0.001770 -0.694453
v 0.204466 -0.108406 -0.209760
v 0.644006 0.017692 -0.649141
v 0.685692 0.000954 -0.591229
v 0.236717 -0.109083 -0.171984
v 0.688880 0.031605 -0.588876
v 0.739767 0.017831 -0.537469
v 0.774185 0.000954 -0.469428
v 0.262678 -0.108405 -0.129638
v 0.772933 0.031605 -0.473186
v 0.816381 0.017692 -0.411886
v 0.840202 0.001770 -0.338571
v 0.280876 -0.105749 -0.086229
v 0.091100 -0.103398 0.280380
v 0.347180 0.002990 0.837136
v 0.211179 0.002990 0.881325
v 0.418363 0.019201 0.813081
v 0.282565 0.018743 0.869646
v 0.139454 0.019201 0.903704
v 0.480730 0.033461 0.767768
v 0.350405 0.033623 0.834831
v 0.207220 0.033623 0.881354
v 0.062367 0.033461 0.903703
v -0.238506 -0.103398 0.173283
v -0.688880 0.002990 0.588876
v -0.772933 0.002990 0.473185
v -0.644005 0.019201 0.649142
v -0.739767 0.018743 0.537469
v -0.816381 0.019201 0.411886
v -0.581638 0.033461 0.694454
v -0.685691 0.033623 0.591230
v -0.774185 0.033623 0.469429
v -0.840202 0.033461 0.338571
v -0.238506 -0.103398 -0.173283
v -0.772933 0.002990 -0.473185
v -0.688880 0.002990 -0.588876
v -0.816381 0.019201 -0.411885
v -0.739767 0.018743 -0.537469
v -0.644005 0.019201 -0.649141
v -0.840202 0.033461 -0.338571
v -0.774185 0.033623 -0.469429
v -0.685691 0.033623 -0.591230
v -0.581638 0.033461 -0.694453
v 0.091100 -0.103398 -0.280380
v 0.211179 0.002990 -0.881325
v 0.347180 0.002990 -0.837135
v 0.139454 0.019201 -0.903703
v 0.282565 0.018743 -0.869646
v 0.418363 0.019201 -0.813080
v 0.062367 0.033461 -0.903703
v 0.207220 0.033623 -0.881354
v 0.350405 0.033623 -0.834830
v 0.480730 0.033461 -0.767768
v 0.294809 -0.103398 0.000000
v 0.903448 0.002990 -0.071499
v 0.903448 0.002990 0.071499
v 0.902567 0.019201 -0.146629
v 0.914400 0.018743 0.000000
v 0.902567 0.019201 0.146629
v 0.878746 0.033461 -0.219943
v 0.902252 0.033622 -0.075275
v 0.902252 0.033622 0.075276
v 0.878746 0.033461 0.219943
vn 0.2429 0.6180 0.7477
vn 0.3304 0.6510 0.6834
vn 0.2107 0.7316 0.6484
vn -0.6360 0.6180 0.4621
vn -0.5478 0.6510 0.5254
vn -0.5516 0.7316 0.4007
vn -0.6360 0.6180 -0.4621
vn -0.6690 0.6510 -0.3586
vn -0.5516 0.7316 -0.4007
vn 0.2429 0.6180 -0.7477
vn 0.1344 0.6510 -0.7471
vn 0.2107 0.7316 -0.6484
vn 0.7862 0.6180 -0.0000
vn 0.7520 0.6510 -0.1031
vn 0.6818 0.7316 -0.0000
vn 0.0743 0.9972 -0.0000
vn 0.0229 0.9972 -0.0706
vn -0.0000 1.0000 -0.0000
vn 0.1567 0.9876 -0.0000
vn 0.1043 0.9916 -0.0758
vn 0.2494 0.9684 -0.0000
vn 0.1948 0.9775 -0.0813
vn 0.3512 0.9363 -0.0000
vn 0.2959 0.9513 -0.0868
vn 0.4594 0.8882 -0.0000
vn 0.4057 0.9094 -0.0917
vn 0.5712 0.8208 -0.0000
vn 0.5217 0.8477 -0.0963
vn 0.6385 0.7630 -0.1006
vn 0.0484 0.9876 -0.1490
vn 0.1375 0.9775 -0.1601
vn 0.0771 0.9684 -0.2371
vn 0.2362 0.9564 -0.1716
vn 0.1740 0.9513 -0.2546
vn 0.1085 0.9363 -0.3340
vn 0.3456 0.9204 -0.1826
vn 0.2804 0.9204 -0.2723
vn 0.2126 0.9094 -0.3576
vn 0.1420 0.8882 -0.4369
vn 0.4633 0.8652 -0.1918
vn 0.3965 0.8717 -0.2881
vn 0.3256 0.8652 -0.3813
vn 0.2528 0.8477 -0.4664
vn 0.1765 0.8208 -0.5432
vn 0.5852 0.7862 -0.1984
vn 0.5191 0.8001 -0.3006
vn 0.4463 0.8001 -0.4008
vn 0.3695 0.7862 -0.4952
vn 0.2929 0.7630 -0.5762
vn 0.7065 0.6782 -0.2022
vn 0.6455 0.6986 -0.3087
vn 0.5737 0.7051 -0.4168
vn 0.4930 0.6986 -0.5185
vn 0.4106 0.6782 -0.6094
vn 0.3304 0.6510 -0.6834
vn -0.0601 0.9972 -0.0436
vn -0.0399 0.9916 -0.1226
vn -0.0172 0.9775 -0.2104
vn 0.0089 0.9513 -0.3082
vn 0.0382 0.9094 -0.4142
vn 0.0696 0.8477 -0.5259
vn 0.1017 0.7630 -0.6384
vn -0.1268 0.9876 -0.0921
vn -0.1098 0.9775 -0.1803
vn -0.2017 0.9684 -0.1466
vn -0.0902 0.9564 -0.2777
vn -0.1884 0.9513 -0.2441
vn -0.2841 0.9363 -0.2064
vn -0.0668 0.9204 -0.3851
vn -0.1723 0.9204 -0.3509
vn -0.2744 0.9094 -0.3127
vn -0.3716 0.8882 -0.2700
vn -0.0393 0.8652 -0.4999
vn -0.1514 0.8717 -0.4661
vn -0.2620 0.8652 -0.4275
vn -0.3654 0.8477 -0.3845
vn -0.4621 0.8208 -0.3357
vn -0.0079 0.7862 -0.6179
vn -0.1255 0.8001 -0.5866
vn -0.2433 0.8001 -0.5484
vn -0.3568 0.7862 -0.5045
vn -0.4575 0.7630 -0.4567
vn 0.0260 0.6782 -0.7344
vn -0.0941 0.6986 -0.7093
vn -0.2191 0.7051 -0.6744
vn -0.3408 0.6986 -0.6291
vn -0.4527 0.6782 -0.5788
vn -0.5478 0.6510 -0.5254
vn -0.0601 0.9972 0.0436
vn -0.1290 0.9916 -0.0000
vn -0.2054 0.9775 -0.0487
vn -0.2904 0.9513 -0.1037
vn -0.3821 0.9094 -0.1643
vn -0.4786 0.8477 -0.2287
vn -0.5757 0.7630 -0.2940
vn -0.1268 0.9876 0.0921
vn -0.2054 0.9775 0.0487
vn -0.2017 0.9684 0.1466
vn -0.2920 0.9564 -0.0000
vn -0.2904 0.9513 0.1037
vn -0.2841 0.9363 0.2064
vn -0.3869 0.9204 -0.0554
vn -0.3869 0.9204 0.0554
vn -0.3821 0.9094 0.1643
vn -0.3716 0.8882 0.2700
vn -0.4876 0.8652 -0.1171
vn -0.4901 0.8717 -0.0000
vn -0.4876 0.8652 0.1171
vn -0.4786 0.8477 0.2287
vn -0.4621 0.8208 0.3357
vn -0.5901 0.7862 -0.1834
vn -0.5967 0.8001 -0.0619
vn -0.5967 0.8001 0.0619
vn -0.5901 0.7862 0.1834
vn -0.5757 0.7630 0.2940
vn -0.6904 0.6782 -0.2517
vn -0.7036 0.6986 -0.1297
vn -0.7091 0.7051 -0.0000
vn -0.7036 0.6986 0.1297
vn -0.6904 0.6782 0.2517
vn -0.6690 0.6510 0.3586
vn 0.0229 0.9972 0.0706
vn -0.0399 0.9916 0.1226
vn -0.1098 0.9775 0.1803
vn -0.1884 0.9513 0.2441
vn -0.2744 0.9094 0.3127
vn -0.3654 0.8477 0.3845
vn -0.4575 0.7630 0.4567
vn 0.0484 0.9876 0.1490
vn -0.0172 0.9775 0.2104
vn 0.0771 0.9684 0.2371
vn -0.0902 0.9564 0.2777
vn 0.0089 0.9513 0.3082
vn 0.1085 0.9363 0.3340
vn -0.1723 0.9204 0.3509
vn -0.0668 0.9204 0.3851
vn 0.0382 0.9094 0.4142
vn 0.1420 0.8882 0.4369
vn -0.2620 0.8652 0.4275
vn -0.1514 0.8717 0.4661
vn -0.0393 0.8652 0.4999
vn 0.0696 0.8477 0.5259
vn 0.1765 0.8208 0.5432
vn -0.3568 0.7862 0.5045
vn -0.2433 0.8001 0.5484
vn -0.1255 0.8001 0.5866
vn -0.0079 0.7862 0.6179
vn 0.1017 0.7630 0.6384
vn -0.4527 0.6782 0.5788
vn -0.3408 0.6986 0.6291
vn -0.2191 0.7051 0.6744
vn -0.0941 0.6986 0.7093
vn 0.0260 0.6782 0.7344
vn 0.1344 0.6510 0.7471
vn 0.1043 0.9916 0.0758
vn 0.1375 0.9775 0.1601
vn 0.1740 0.9513 0.2546
vn 0.2126 0.9094 0.3576
vn 0.2528 0.8477 0.4664
vn 0.2929 0.7630 0.5762
vn 0.1948 0.9775 0.0813
vn 0.2362 0.9564 0.1716
vn 0.2959 0.9513 0.0868
vn 0.2804 0.9204 0.2723
vn 0.3456 0.9204 0.1826
vn 0.4057 0.9094 0.0917
vn 0.3256 0.8652 0.3813
vn 0.3965 0.8717 0.2881
vn 0.4633 0.8652 0.1918
vn 0.5217 0.8477 0.0963
vn 0.3695 0.7862 0.4952
vn 0.4463 0.8001 0.4008
vn 0.5191 0.8001 0.3006
vn 0.5852 0.7862 0.1984
vn 0.6385 0.7630 0.1006
vn 0.4106 0.6782 0.6094
vn 0.4930 0.6986 0.5185
vn 0.5737 0.7051 0.4168
vn 0.6455 0.6986 0.3087
vn 0.7065 0.6782 0.2022
vn 0.7520 0.6510 0.1031
vn 0.8615 0.5029 -0.0697
vn 0.8866 0.4409 -0.1398
vn 0.8263 0.5328 -0.1825
vn 0.1701 0.9848 -0.0345
vn 0.1824 0.9832 0.0027
vn 0.1762 0.9843 -0.0030
vn 0.8097 0.5277 -0.2567
vn 0.8560 0.3816 -0.3489
vn 0.9072 0.3606 -0.2166
vn 0.8494 -0.3920 -0.3533
vn 0.7284 -0.5745 -0.3734
vn 0.7784 -0.5716 -0.2595
vn 0.8468 0.4665 -0.2555
vn 0.7748 0.5575 -0.2979
vn 0.1663 0.9845 -0.0566
vn 0.1687 0.9844 -0.0505
vn 0.7853 0.4848 -0.3850
vn 0.7041 0.5705 -0.4229
vn 0.7469 0.5495 -0.3745
vn 0.7887 0.3829 -0.4809
vn 0.1523 0.9843 -0.0894
vn 0.1413 0.9846 -0.1026
vn 0.7053 0.4898 -0.5124
vn 0.6198 0.5705 -0.5389
vn 0.7856 -0.3909 -0.4796
vn 0.6533 -0.5899 -0.4746
vn 0.6756 0.5502 -0.4908
vn 0.7011 0.3829 -0.6015
vn 0.1321 0.9843 -0.1173
vn 0.1001 0.9844 -0.1449
vn 0.6088 0.4848 -0.6279
vn 0.5228 0.5576 -0.6448
vn 0.6989 -0.3908 -0.5990
vn 0.5802 -0.5745 -0.5773
vn 0.5870 0.5494 -0.5946
vn 0.5963 0.3816 -0.7063
vn 0.1052 0.9845 -0.1406
vn 0.0538 0.9832 -0.1744
vn 0.5047 0.4665 -0.7264
vn 0.4290 0.5328 -0.7295
vn 0.5985 -0.3920 -0.6986
vn 0.4873 -0.5716 -0.6601
vn 0.4944 0.5277 -0.6907
vn 0.4864 0.3606 -0.7959
vn 0.0854 0.9848 -0.1511
vn 0.0574 0.9843 -0.1667
vn 0.4069 0.4409 -0.8000
vn 0.3325 0.5029 -0.7978
vn 0.1999 0.5029 -0.8409
vn 0.1411 0.4409 -0.8864
vn 0.0817 0.5328 -0.8423
vn 0.0198 0.9848 -0.1724
vn 0.0590 0.9832 -0.1727
vn 0.0516 0.9843 -0.1686
vn 0.0060 0.5277 -0.8494
vn -0.0673 0.3816 -0.9219
vn 0.0743 0.3606 -0.9298
vn -0.0735 -0.3921 -0.9170
vn -0.1300 -0.5745 -0.8081
vn -0.0063 -0.5716 -0.8205
vn 0.0187 0.4665 -0.8843
vn -0.0439 0.5576 -0.8290
vn -0.0025 0.9845 -0.1756
vn 0.0042 0.9844 -0.1761
vn -0.1235 0.4848 -0.8659
vn -0.1847 0.5705 -0.8003
vn -0.1254 0.5494 -0.8261
vn -0.2137 0.3829 -0.8987
vn -0.0380 0.9843 -0.1725
vn -0.0540 0.9846 -0.1661
vn -0.2694 0.4898 -0.8292
vn -0.3210 0.5705 -0.7560
vn -0.2134 -0.3909 -0.8954
vn -0.2495 -0.5899 -0.7680
vn -0.2580 0.5502 -0.7942
vn -0.3554 0.3829 -0.8527
vn -0.0707 0.9843 -0.1619
vn -0.1069 0.9844 -0.1400
vn -0.4091 0.4848 -0.7731
vn -0.4517 0.5576 -0.6965
vn -0.3537 -0.3909 -0.8498
vn -0.3698 -0.5745 -0.7302
vn -0.3841 0.5494 -0.7420
vn -0.4874 0.3816 -0.7854
vn -0.1012 0.9845 -0.1435
vn -0.1492 0.9832 -0.1050
vn -0.5349 0.4665 -0.7045
vn -0.5612 0.5328 -0.6334
vn -0.4795 -0.3921 -0.7851
vn -0.4772 -0.5716 -0.6675
vn -0.5041 0.5277 -0.6836
vn -0.6066 0.3606 -0.7085
vn -0.1174 0.9848 -0.1279
vn -0.1408 0.9843 -0.1061
vn -0.6351 0.4409 -0.6342
vn -0.6560 0.5029 -0.5628
vn -0.7380 0.5029 -0.4500
vn -0.7994 0.4409 -0.4081
vn -0.7758 0.5328 -0.3380
vn -0.1579 0.9848 -0.0721
vn -0.1460 0.9832 -0.1094
vn -0.1444 0.9843 -0.1011
vn -0.8060 0.5277 -0.2682
vn -0.8975 0.3816 -0.2209
vn -0.8613 0.3605 -0.3580
vn -0.8948 -0.3920 -0.2134
vn -0.8087 -0.5745 -0.1260
vn -0.7823 -0.5716 -0.2476
vn -0.8353 0.4665 -0.2910
vn -0.8020 0.5575 -0.2144
vn -0.1678 0.9845 -0.0519
vn -0.1662 0.9844 -0.0584
vn -0.8617 0.4848 -0.1501
vn -0.8182 0.5705 -0.0717
vn -0.8244 0.5494 -0.1360
vn -0.9208 0.3829 -0.0745
vn -0.1758 0.9843 -0.0172
vn -0.1746 0.9846 -0.0000
vn -0.8718 0.4898 -0.0000
vn -0.8182 0.5705 0.0717
vn -0.9175 -0.3909 -0.0737
vn -0.8075 -0.5899 -0.0000
vn -0.8351 0.5502 -0.0000
vn -0.9208 0.3829 0.0745
vn -0.1758 0.9843 0.0172
vn -0.1662 0.9844 0.0584
vn -0.8617 0.4848 0.1501
vn -0.8020 0.5575 0.2144
vn -0.9175 -0.3909 0.0737
vn -0.8087 -0.5745 0.1260
vn -0.8244 0.5494 0.1360
vn -0.8975 0.3816 0.2209
vn -0.1678 0.9845 0.0519
vn -0.1460 0.9832 0.1094
vn -0.8353 0.4665 0.2910
vn -0.7758 0.5328 0.3380
vn -0.8948 -0.3920 0.2134
vn -0.7823 -0.5716 0.2476
vn -0.8060 0.5277 0.2682
vn -0.8613 0.3605 0.3580
vn -0.1579 0.9848 0.0721
vn -0.1444 0.9843 0.1011
vn -0.7994 0.4409 0.4081
vn -0.7380 0.5029 0.4500
vn -0.6560 0.5029 0.5628
vn -0.6351 0.4409 0.6342
vn -0.5612 0.5328 0.6334
vn -0.1174 0.9848 0.1279
vn -0.1492 0.9832 0.1050
vn -0.1408 0.9843 0.1061
vn -0.5041 0.5277 0.6836
vn -0.4874 0.3816 0.7854
vn -0.6066 0.3606 0.7085
vn -0.4795 -0.3920 0.7851
vn -0.3698 -0.5745 0.7302
vn -0.4772 -0.5716 0.6675
vn -0.5349 0.4665 0.7045
vn -0.4517 0.5576 0.6965
vn -0.1012 0.9845 0.1435
vn -0.1069 0.9844 0.1400
vn -0.4091 0.4848 0.7731
vn -0.3210 0.5705 0.7560
vn -0.3841 0.5494 0.7420
vn -0.3554 0.3829 0.8527
vn -0.0707 0.9843 0.1619
vn -0.0540 0.9846 0.1661
vn -0.2694 0.4898 0.8292
vn -0.1847 0.5705 0.8003
vn -0.3537 -0.3909 0.8498
vn -0.2495 -0.5899 0.7680
vn -0.2580 0.5502 0.7942
vn -0.2137 0.3829 0.8987
vn -0.0380 0.9843 0.1725
vn 0.0042 0.9844 0.1761
vn -0.1235 0.4848 0.8659
vn -0.0439 0.5576 0.8290
vn -0.2134 -0.3909 0.8954
vn -0.1300 -0.5745 0.8081
vn -0.1254 0.5494 0.8261
vn -0.0673 0.3816 0.9219
vn -0.0025 0.9845 0.1756
vn 0.0590 0.9832 0.1727
vn 0.0187 0.4665 0.8843
vn 0.0817 0.5328 0.8423
vn -0.0735 -0.3920 0.9170
vn -0.0063 -0.5717 0.8205
vn 0.0060 0.5277 0.8494
vn 0.0743 0.3606 0.9298
vn 0.0198 0.9848 0.1724
vn 0.0516 0.9843 0.1686
vn 0.1411 0.4409 0.8864
vn 0.1999 0.5029 0.8409
vn 0.3325 0.5029 0.7978
vn 0.4069 0.4409 0.8000
vn 0.4290 0.5328 0.7295
vn 0.0854 0.9848 0.1511
vn 0.0538 0.9832 0.1744
vn 0.0574 0.9843 0.1667
vn 0.4944 0.5277 0.6907
vn 0.5963 0.3816 0.7063
vn 0.4864 0.3606 0.7959
vn 0.5985 -0.3920 0.6986
vn 0.5802 -0.5745 0.5773
vn 0.4873 -0.5717 0.6601
vn 0.5047 0.4665 0.7264
vn 0.5228 0.5576 0.6448
vn 0.1052 0.9845 0.1406
vn 0.1001 0.9844 0.1449
vn 0.6088 0.4848 0.6279
vn 0.6198 0.5705 0.5389
vn 0.5870 0.5494 0.5946
vn 0.7011 0.3829 0.6015
vn 0.1321 0.9843 0.1173
vn 0.1413 0.9846 0.1026
vn 0.7053 0.4898 0.5124
vn 0.7041 0.5705 0.4229
vn 0.6989 -0.3909 0.5990
vn 0.6533 -0.5899 0.4746
vn 0.6756 0.5502 0.4908
vn 0.7887 0.3829 0.4809
vn 0.1523 0.9843 0.0894
vn 0.1687 0.9844 0.0505
vn 0.7853 0.4848 0.3850
vn 0.7748 0.5575 0.2979
vn 0.7856 -0.3909 0.4796
vn 0.7283 -0.5745 0.3734
vn 0.7469 0.5494 0.3745
vn 0.8560 0.3816 0.3489
vn 0.1663 0.9845 0.0566
vn 0.1824 0.9832 -0.0027
vn 0.8468 0.4665 0.2555
vn 0.8263 0.5328 0.1825
vn 0.8494 -0.3920 0.3533
vn 0.7784 -0.5716 0.2595
vn 0.8097 0.5277 0.2567
vn 0.9072 0.3606 0.2166
vn 0.1701 0.9848 0.0345
vn 0.1762 0.9843 0.0030
vn 0.8866 0.4409 0.1398
vn 0.8615 0.5029 0.0697
vn 0.2783 0.4345 -0.8566
vn 0.0679 0.9853 -0.1570
vn 0.3873 0.5232 -0.7591
vn 0.4798 -0.4146 -0.7732
vn 0.0522 0.9856 -0.1607
vn 0.0373 0.9853 -0.1670
vn 0.3604 0.3507 -0.8644
vn 0.2611 0.5348 -0.8036
vn 0.2165 0.3507 -0.9111
vn 0.1328 0.5232 -0.8418
vn 0.3654 -0.6019 -0.7100
vn 0.3475 -0.4241 -0.8363
vn 0.2468 -0.6019 -0.7595
vn 0.2104 -0.4241 -0.8808
vn 0.1217 -0.6019 -0.7892
vn 0.0663 -0.4146 -0.9076
vn -0.7287 0.4345 -0.5294
vn -0.1284 0.9853 -0.1131
vn -0.6023 0.5232 -0.6030
vn -0.5871 -0.4146 -0.6953
vn -0.1367 0.9856 -0.0993
vn -0.1473 0.9853 -0.0871
vn -0.7107 0.3507 -0.6099
vn -0.6836 0.5348 -0.4967
vn -0.7996 0.3507 -0.4874
vn -0.7596 0.5232 -0.3865
vn -0.5624 -0.6020 -0.5669
vn -0.6880 -0.4241 -0.5889
vn -0.6461 -0.6019 -0.4694
vn -0.7727 -0.4241 -0.4723
vn -0.7130 -0.6019 -0.3597
vn -0.8427 -0.4146 -0.3435
vn -0.7287 0.4345 0.5294
vn -0.1473 0.9853 0.0871
vn -0.7596 0.5232 0.3865
vn -0.8427 -0.4146 0.3435
vn -0.1367 0.9856 0.0993
vn -0.1284 0.9853 0.1131
vn -0.7996 0.3507 0.4874
vn -0.6836 0.5348 0.4967
vn -0.7107 0.3507 0.6099
vn -0.6023 0.5232 0.6030
vn -0.7130 -0.6019 0.3597
vn -0.7727 -0.4241 0.4723
vn -0.6461 -0.6019 0.4694
vn -0.6880 -0.4241 0.5889
vn -0.5624 -0.6019 0.5669
vn -0.5871 -0.4146 0.6953
vn 0.2783 0.4345 0.8566
vn 0.0373 0.9853 0.1670
vn 0.1328 0.5232 0.8418
vn 0.0663 -0.4146 0.9076
vn 0.0522 0.9856 0.1607
vn 0.0679 0.9853 0.1570
vn 0.2165 0.3507 0.9111
vn 0.2611 0.5348 0.8036
vn 0.3604 0.3507 0.8644
vn 0.3873 0.5232 0.7591
vn 0.1217 -0.6019 0.7892
vn 0.2104 -0.4241 0.8808
vn 0.2468 -0.6019 0.7595
vn 0.3475 -0.4241 0.8363
vn 0.3654 -0.6019 0.7100
vn 0.4798 -0.4146 0.7732
vn 0.9007 0.4345 -0.0000
vn 0.1704 0.9853 0.0161
vn 0.8417 0.5232 0.1338
vn 0.8836 -0.4146 0.2174
vn 0.1689 0.9856 -0.0000
vn 0.1704 0.9853 -0.0161
vn 0.9334 0.3507 0.0757
vn 0.8450 0.5348 -0.0000
vn 0.9334 0.3507 -0.0757
vn 0.8417 0.5232 -0.1338
vn 0.7882 -0.6019 0.1281
vn 0.9027 -0.4241 0.0720
vn 0.7986 -0.6019 -0.0000
vn 0.9027 -0.4241 -0.0720
vn 0.7882 -0.6019 -0.1281
vn 0.8836 -0.4146 -0.2174
vn 0.1701 -0.9848 0.0345
vn 0.0957 -0.9954 -0.0014
vn 0.0941 -0.9956 0.0016
vn 0.8097 -0.5277 0.2567
vn 0.8560 -0.3816 0.3489
vn 0.9072 -0.3606 0.2166
vn 0.8494 0.3920 0.3533
vn 0.7284 0.5745 0.3734
vn 0.7784 0.5716 0.2595
vn 0.1663 -0.9845 0.0566
vn 0.0888 -0.9957 0.0265
vn 0.7469 -0.5495 0.3745
vn 0.7887 -0.3829 0.4809
vn 0.1523 -0.9843 0.0894
vn 0.0744 -0.9958 0.0540
vn 0.7856 0.3909 0.4796
vn 0.6533 0.5899 0.4746
vn 0.6756 -0.5502 0.4908
vn 0.7011 -0.3829 0.6015
vn 0.1321 -0.9843 0.1173
vn 0.0527 -0.9957 0.0762
vn 0.6989 0.3908 0.5990
vn 0.5802 0.5745 0.5773
vn 0.5870 -0.5495 0.5946
vn 0.5963 -0.3816 0.7063
vn 0.1052 -0.9845 0.1406
vn 0.0282 -0.9954 0.0915
vn 0.5985 0.3920 0.6986
vn 0.4873 0.5716 0.6601
vn 0.4944 -0.5277 0.6907
vn 0.4864 -0.3606 0.7959
vn 0.0854 -0.9848 0.1511
vn 0.0306 -0.9956 0.0890
vn 0.0198 -0.9848 0.1724
vn 0.0309 -0.9954 0.0906
vn 0.0275 -0.9956 0.0900
vn 0.0060 -0.5277 0.8494
vn -0.0673 -0.3816 0.9219
vn 0.0743 -0.3606 0.9298
vn -0.0735 0.3921 0.9170
vn -0.1300 0.5745 0.8081
vn -0.0063 0.5716 0.8205
vn -0.0025 -0.9845 0.1756
vn 0.0022 -0.9957 0.0926
vn -0.1254 -0.5494 0.8261
vn -0.2137 -0.3829 0.8987
vn -0.0380 -0.9843 0.1725
vn -0.0284 -0.9958 0.0874
vn -0.2134 0.3909 0.8954
vn -0.2495 0.5899 0.7680
vn -0.2580 -0.5502 0.7942
vn -0.3554 -0.3829 0.8527
vn -0.0707 -0.9843 0.1619
vn -0.0562 -0.9957 0.0736
vn -0.3537 0.3909 0.8498
vn -0.3698 0.5745 0.7302
vn -0.3841 -0.5495 0.7420
vn -0.4874 -0.3816 0.7854
vn -0.1012 -0.9845 0.1435
vn -0.0783 -0.9954 0.0551
vn -0.4795 0.3921 0.7851
vn -0.4772 0.5716 0.6675
vn -0.5041 -0.5277 0.6836
vn -0.6066 -0.3605 0.7085
vn -0.1174 -0.9848 0.1279
vn -0.0752 -0.9956 0.0566
vn -0.1579 -0.9848 0.0721
vn -0.0766 -0.9954 0.0574
vn -0.0771 -0.9956 0.0540
vn -0.8060 -0.5277 0.2682
vn -0.8975 -0.3816 0.2209
vn -0.8613 -0.3605 0.3580
vn -0.8948 0.3920 0.2134
vn -0.8087 0.5745 0.1260
vn -0.7823 0.5716 0.2476
vn -0.1678 -0.9845 0.0519
vn -0.0874 -0.9957 0.0307
vn -0.8244 -0.5494 0.1360
vn -0.9208 -0.3829 0.0745
vn -0.1758 -0.9843 0.0172
vn -0.0919 -0.9958 -0.0000
vn -0.9175 0.3909 0.0737
vn -0.8075 0.5899 -0.0000
vn -0.8351 -0.5502 -0.0000
vn -0.9208 -0.3829 -0.0745
vn -0.1758 -0.9843 -0.0172
vn -0.0874 -0.9957 -0.0307
vn -0.9175 0.3909 -0.0737
vn -0.8087 0.5745 -0.1260
vn -0.8244 -0.5494 -0.1360
vn -0.8975 -0.3816 -0.2209
vn -0.1678 -0.9845 -0.0519
vn -0.0766 -0.9954 -0.0574
vn -0.8948 0.3920 -0.2134
vn -0.7823 0.5716 -0.2476
vn -0.8060 -0.5277 -0.2682
vn -0.8613 -0.3605 -0.3580
vn -0.1579 -0.9848 -0.0721
vn -0.0771 -0.9956 -0.0540
vn -0.1174 -0.9848 -0.1279
vn -0.0783 -0.9954 -0.0551
vn -0.0752 -0.9956 -0.0566
vn -0.5041 -0.5277 -0.6836
vn -0.4874 -0.3816 -0.7854
vn -0.6066 -0.3606 -0.7085
vn -0.4795 0.3920 -0.7851
vn -0.3698 0.5745 -0.7302
vn -0.4772 0.5716 -0.6675
vn -0.1012 -0.9845 -0.1435
vn -0.0562 -0.9957 -0.0736
vn -0.3841 -0.5494 -0.7420
vn -0.3554 -0.3829 -0.8527
vn -0.0707 -0.9843 -0.1619
vn -0.0284 -0.9958 -0.0874
vn -0.3537 0.3909 -0.8498
vn -0.2495 0.5899 -0.7680
vn -0.2580 -0.5502 -0.7942
vn -0.2137 -0.3829 -0.8987
vn -0.0380 -0.9843 -0.1725
vn 0.0022 -0.9957 -0.0926
vn -0.2134 0.3909 -0.8954
vn -0.1300 0.5745 -0.8081
vn -0.1254 -0.5494 -0.8261
vn -0.0673 -0.3816 -0.9219
vn -0.0025 -0.9845 -0.1756
vn 0.0309 -0.9954 -0.0906
vn -0.0735 0.3920 -0.9170
vn -0.0063 0.5717 -0.8205
vn 0.0060 -0.5277 -0.8494
vn 0.0743 -0.3606 -0.9298
vn 0.0198 -0.9848 -0.1724
vn 0.0275 -0.9956 -0.0900
vn 0.0854 -0.9848 -0.1511
vn 0.0282 -0.9954 -0.0915
vn 0.0306 -0.9956 -0.0890
vn 0.4944 -0.5277 -0.6907
vn 0.5963 -0.3816 -0.7063
vn 0.4864 -0.3606 -0.7959
vn 0.5985 0.3920 -0.6986
vn 0.5802 0.5745 -0.5773
vn 0.4873 0.5717 -0.6601
vn 0.1052 -0.9845 -0.1406
vn 0.0527 -0.9957 -0.0762
vn 0.5870 -0.5494 -0.5946
vn 0.7011 -0.3829 -0.6015
vn 0.1321 -0.9843 -0.1173
vn 0.0744 -0.9958 -0.0540
vn 0.6989 0.3909 -0.5989
vn 0.6533 0.5899 -0.4746
vn 0.6756 -0.5502 -0.4908
vn 0.7887 -0.3829 -0.4809
vn 0.1523 -0.9843 -0.0894
vn 0.0888 -0.9957 -0.0265
vn 0.7856 0.3909 -0.4796
vn 0.7283 0.5745 -0.3734
vn 0.7469 -0.5494 -0.3745
vn 0.8560 -0.3816 -0.3489
vn 0.1663 -0.9845 -0.0566
vn 0.0957 -0.9954 0.0014
vn 0.8494 0.3920 -0.3533
vn 0.7784 0.5716 -0.2595
vn 0.8097 -0.5277 -0.2567
vn 0.9072 -0.3606 -0.2166
vn 0.1701 -0.9848 -0.0345
vn 0.0941 -0.9956 -0.0016
vn 0.0679 -0.9853 0.1570
vn 0.3873 -0.5232 0.7591
vn 0.4798 0.4146 0.7732
vn 0.0274 -0.9961 0.0842
vn 0.0373 -0.9853 0.1670
vn 0.3604 -0.3507 0.8644
vn 0.2611 -0.5348 0.8036
vn 0.2165 -0.3507 0.9111
vn 0.1328 -0.5232 0.8418
vn 0.3654 0.6019 0.7100
vn 0.3475 0.4241 0.8363
vn 0.2468 0.6019 0.7595
vn 0.2104 0.4241 0.8808
vn 0.1217 0.6019 0.7892
vn 0.0663 0.4146 0.9076
vn -0.1284 -0.9853 0.1131
vn -0.6023 -0.5232 0.6030
vn -0.5871 0.4146 0.6953
vn -0.0717 -0.9961 0.0521
vn -0.1473 -0.9853 0.0871
vn -0.7107 -0.3507 0.6099
vn -0.6836 -0.5348 0.4967
vn -0.7996 -0.3507 0.4874
vn -0.7596 -0.5232 0.3865
vn -0.5624 0.6019 0.5669
vn -0.6880 0.4241 0.5889
vn -0.6461 0.6019 0.4694
vn -0.7727 0.4241 0.4723
vn -0.7130 0.6019 0.3597
vn -0.8427 0.4146 0.3435
vn -0.1473 -0.9853 -0.0871
vn -0.7596 -0.5232 -0.3865
vn -0.8427 0.4146 -0.3435
vn -0.0717 -0.9961 -0.0521
vn -0.1284 -0.9853 -0.1131
vn -0.7996 -0.3507 -0.4874
vn -0.6836 -0.5348 -0.4967
vn -0.7107 -0.3507 -0.6099
vn -0.6023 -0.5232 -0.6030
vn -0.7130 0.6019 -0.3597
vn -0.7727 0.4241 -0.4723
vn -0.6461 0.6019 -0.4694
vn -0.6880 0.4241 -0.5889
vn -0.5624 0.6019 -0.5669
vn -0.5871 0.4146 -0.6953
vn 0.0373 -0.9853 -0.1670
vn 0.1328 -0.5232 -0.8418
vn 0.0663 0.4146 -0.9076
vn 0.0274 -0.9961 -0.0842
vn 0.0679 -0.9853 -0.1570
vn 0.2165 -0.3507 -0.9111
vn 0.2611 -0.5348 -0.8036
vn 0.3604 -0.3507 -0.8644
vn 0.3873 -0.5232 -0.7591
vn 0.1217 0.6019 -0.7892
vn 0.2104 0.4241 -0.8808
vn 0.2468 0.6019 -0.7595
vn 0.3475 0.4241 -0.8363
vn 0.3654 0.6019 -0.7100
vn 0.4798 0.4146 -0.7732
vn 0.1704 -0.9853 -0.0161
vn 0.8417 -0.5232 -0.1338
vn 0.8836 0.4146 -0.2174
vn 0.0886 -0.9961 -0.0000
vn 0.1704 -0.9853 0.0161
vn 0.9334 -0.3507 -0.0757
vn 0.8450 -0.5348 -0.0000
vn 0.9334 -0.3507 0.0757
vn 0.8417 -0.5232 0.1338
vn 0.7882 0.6019 -0.1281
vn 0.9027 0.4241 -0.0720
vn 0.7986 0.6019 -0.0000
vn 0.9027 0.4241 0.0720
vn 0.7882 0.6019 0.1281
vn 0.8836 0.4146 0.2174
vt 0.584243 0.467472
vt 0.614966 0.473059
vt 0.578619 0.487107
vt 0.279445 0.339759
vt 0.305400 0.315889
vt 0.294169 0.350457
vt 0.279445 0.660241
vt 0.264765 0.628180
vt 0.294169 0.649544
vt 0.549215 0.473059
vt 0.500000 0.467471
vt 0.534567 0.473058
vt 0.500000 0.487106
vt 0.536346 0.500000
vt 0.511232 0.534567
vt 0.500000 0.500000
vt 0.576550 0.500000
vt 0.550657 0.536804
vt 0.618773 0.500000
vt 0.593625 0.538563
vt 0.660243 0.500000
vt 0.637579 0.539542
vt 0.697955 0.500000
vt 0.679157 0.539542
vt 0.729649 0.500000
vt 0.715268 0.538563
vt 0.754422 0.500000
vt 0.744152 0.536805
vt 0.523655 0.572802
vt 0.565607 0.577125
vt 0.536702 0.612958
vt 0.610277 0.580121
vt 0.580121 0.618626
vt 0.549517 0.652399
vt 0.654451 0.581200
vt 0.624953 0.621799
vt 0.592969 0.658168
vt 0.561170 0.688265
vt 0.694522 0.580121
vt 0.667643 0.621800
vt 0.636310 0.660242
vt 0.603196 0.692814
vt 0.570964 0.718408
vt 0.727798 0.577126
vt 0.704852 0.618626
vt 0.676123 0.658169
vt 0.643744 0.692815
vt 0.610449 0.720828
vt 0.578619 0.741969
vt 0.765653 0.534567
vt 0.753305 0.572803
vt 0.734657 0.612959
vt 0.709761 0.652399
vt 0.679944 0.688265
vt 0.647515 0.718409
vt 0.614966 0.741969
vt 0.470596 0.521363
vt 0.480651 0.559551
vt 0.492256 0.600958
vt 0.504907 0.643064
vt 0.517755 0.682606
vt 0.529845 0.716647
vt 0.540443 0.743574
vt 0.438071 0.544994
vt 0.446923 0.586228
vt 0.403912 0.569812
vt 0.457878 0.629637
vt 0.411939 0.612856
vt 0.370362 0.594187
vt 0.470502 0.671983
vt 0.422774 0.656475
vt 0.378302 0.637294
vt 0.339852 0.616353
vt 0.483910 0.709759
vt 0.435966 0.697075
vt 0.389723 0.679155
vt 0.348512 0.657728
vt 0.314211 0.634983
vt 0.497041 0.740481
vt 0.450482 0.731483
vt 0.403997 0.716379
vt 0.361041 0.696291
vt 0.324111 0.673283
vt 0.549215 0.763332
vt 0.509034 0.763403
vt 0.465081 0.758078
vt 0.419878 0.746587
vt 0.376554 0.729313
vt 0.337865 0.707786
vt 0.305400 0.684111
vt 0.470596 0.478637
vt 0.437385 0.500000
vt 0.401590 0.523833
vt 0.365455 0.548876
vt 0.331818 0.573314
vt 0.303179 0.595332
vt 0.280844 0.613732
vt 0.438071 0.455006
vt 0.401590 0.476167
vt 0.403912 0.430188
vt 0.363691 0.500000
vt 0.365455 0.451124
vt 0.370362 0.405813
vt 0.327319 0.525092
vt 0.327319 0.474908
vt 0.331818 0.426686
vt 0.339852 0.383647
vt 0.295535 0.549517
vt 0.292783 0.500000
vt 0.295535 0.450483
vt 0.303179 0.404668
vt 0.314211 0.365017
vt 0.270375 0.571499
vt 0.264545 0.524438
vt 0.264545 0.475562
vt 0.270375 0.428501
vt 0.280844 0.386268
vt 0.252281 0.589988
vt 0.243763 0.546541
vt 0.240723 0.500000
vt 0.243763 0.453459
vt 0.252281 0.410012
vt 0.264765 0.371820
vt 0.511232 0.465433
vt 0.480651 0.440449
vt 0.446923 0.413772
vt 0.411939 0.387144
vt 0.378302 0.362706
vt 0.348512 0.342272
vt 0.324111 0.326717
vt 0.523655 0.427198
vt 0.492256 0.399042
vt 0.536702 0.387042
vt 0.457878 0.370363
vt 0.504907 0.356936
vt 0.549517 0.347601
vt 0.422774 0.343525
vt 0.470502 0.328017
vt 0.517755 0.317394
vt 0.561170 0.311735
vt 0.389723 0.320845
vt 0.435966 0.302925
vt 0.483910 0.290241
vt 0.529845 0.283353
vt 0.570964 0.281592
vt 0.361041 0.303709
vt 0.403997 0.283621
vt 0.450482 0.268517
vt 0.497041 0.259520
vt 0.540443 0.256426
vt 0.578619 0.258031
vt 0.337865 0.292214
vt 0.376554 0.270687
vt 0.419878 0.253413
vt 0.465081 0.241922
vt 0.509034 0.236597
vt 0.549215 0.236668
vt 0.550657 0.463196
vt 0.565607 0.422875
vt 0.580121 0.381374
vt 0.592969 0.341832
vt 0.603196 0.307186
vt 0.610449 0.279172
vt 0.593625 0.461437
vt 0.610277 0.419879
vt 0.637579 0.460458
vt 0.624953 0.378201
vt 0.654451 0.418800
vt 0.679157 0.460458
vt 0.636310 0.339758
vt 0.667643 0.378200
vt 0.694522 0.419879
vt 0.715268 0.461437
vt 0.643744 0.307185
vt 0.676123 0.341831
vt 0.704852 0.381374
vt 0.727798 0.422874
vt 0.744152 0.463195
vt 0.614966 0.258031
vt 0.647515 0.281591
vt 0.679944 0.311735
vt 0.709761 0.347601
vt 0.734657 0.387041
vt 0.753305 0.427197
vt 0.765653 0.465433
vt 0.465433 0.473058
vt 0.521363 0.449953
vt 0.544994 0.428231
vt 0.559551 0.454163
vt 0.397728 0.255874
vt 0.409092 0.275556
vt 0.386364 0.275556
vt 0.409092 0.236191
vt 0.420455 0.255874
vt 0.420455 0.216509
vt 0.431819 0.236191
vt 0.572803 0.477717
vt 0.586229 0.431433
vt 0.600959 0.458184
vt 0.612959 0.481325
vt 0.431819 0.275556
vt 0.629638 0.434089
vt 0.643064 0.460363
vt 0.738490 0.643064
vt 0.443182 0.255874
vt 0.454546 0.275556
vt 0.671984 0.434766
vt 0.682607 0.460364
vt 0.652399 0.482451
vt 0.709761 0.682607
vt 0.443182 0.216509
vt 0.454546 0.236191
vt 0.465910 0.255874
vt 0.477273 0.275556
vt 0.709760 0.434089
vt 0.704467 0.434089
vt 0.676548 0.458185
vt 0.709761 0.460364
vt 0.676548 0.716648
vt 0.465910 0.216509
vt 0.477273 0.236191
vt 0.488637 0.255874
vt 0.500000 0.275556
vt 0.668805 0.431433
vt 0.641758 0.454164
vt 0.647515 0.477718
vt 0.488637 0.216508
vt 0.500000 0.236191
vt 0.511364 0.255874
vt 0.522728 0.275556
vt 0.632895 0.428232
vt 0.608024 0.449954
vt 0.567388 0.449954
vt 0.547310 0.428231
vt 0.528484 0.454164
vt 0.579546 0.255874
vt 0.590910 0.275556
vt 0.568182 0.275556
vt 0.590910 0.236191
vt 0.602273 0.255874
vt 0.602273 0.216509
vt 0.613637 0.236191
vt 0.509034 0.477718
vt 0.504786 0.431433
vt 0.484512 0.458185
vt 0.465081 0.481325
vt 0.613637 0.275556
vt 0.457878 0.434089
vt 0.437634 0.460364
vt 0.419878 0.482452
vt 0.625000 0.255874
vt 0.636364 0.275556
vt 0.409582 0.434766
vt 0.391149 0.460364
vt 0.376554 0.481325
vt 0.625000 0.216509
vt 0.636364 0.236191
vt 0.647728 0.255874
vt 0.659091 0.275556
vt 0.363689 0.434089
vt 0.348511 0.458185
vt 0.348511 0.734855
vt 0.647728 0.216509
vt 0.659091 0.236191
vt 0.670455 0.255874
vt 0.681818 0.275556
vt 0.323451 0.431433
vt 0.312152 0.454164
vt 0.337865 0.477718
vt 0.312152 0.710088
vt 0.670455 0.216508
vt 0.681818 0.236191
vt 0.693182 0.255874
vt 0.704546 0.275556
vt 0.290554 0.428232
vt 0.282937 0.449954
vt 0.710088 0.454164
vt 0.684111 0.449954
vt 0.684111 0.473059
vt 0.660241 0.467471
vt 0.649544 0.449954
vt 0.628180 0.473059
vt 0.634983 0.428231
vt 0.613732 0.454164
vt 0.761364 0.255874
vt 0.772727 0.275556
vt 0.750000 0.275556
vt 0.772727 0.236191
vt 0.784091 0.255874
vt 0.784091 0.216509
vt 0.795455 0.236191
vt 0.589988 0.477718
vt 0.595332 0.431433
vt 0.571499 0.458184
vt 0.546541 0.481325
vt 0.795455 0.275556
vt 0.549517 0.434089
vt 0.524438 0.460363
vt 0.500000 0.482451
vt 0.806818 0.255874
vt 0.818182 0.275556
vt 0.500000 0.434766
vt 0.475562 0.460363
vt 0.453459 0.481325
vt 0.806818 0.216509
vt 0.818182 0.236191
vt 0.829546 0.255874
vt 0.840909 0.275556
vt 0.450483 0.434089
vt 0.428501 0.458184
vt 0.410012 0.477718
vt 0.829546 0.216509
vt 0.840909 0.236191
vt 0.852273 0.255874
vt 0.863636 0.275556
vt 0.404668 0.431433
vt 0.386268 0.454164
vt 0.371820 0.473059
vt 0.852273 0.216508
vt 0.863636 0.236191
vt 0.875000 0.255874
vt 0.886364 0.275556
vt 0.365017 0.428231
vt 0.350456 0.449954
vt 0.339759 0.467471
vt 0.315889 0.449954
vt 0.315889 0.473059
vt 0.312152 0.454164
vt 0.034091 0.255874
vt 0.045455 0.275556
vt 0.022727 0.275556
vt 0.045455 0.236191
vt 0.056819 0.255874
vt 0.056819 0.216509
vt 0.068182 0.236191
vt 0.289912 0.454164
vt 0.312152 0.289912
vt 0.323451 0.431433
vt 0.348511 0.458185
vt 0.337865 0.477718
vt 0.348511 0.265146
vt 0.068182 0.275556
vt 0.363689 0.434089
vt 0.391149 0.460364
vt 0.419878 0.482452
vt 0.079546 0.255874
vt 0.090910 0.275556
vt 0.409582 0.434766
vt 0.437634 0.460364
vt 0.465081 0.481325
vt 0.079546 0.216509
vt 0.090910 0.236191
vt 0.102273 0.255874
vt 0.113637 0.275556
vt 0.457877 0.434089
vt 0.484511 0.458185
vt 0.102274 0.216509
vt 0.113637 0.236191
vt 0.125001 0.255874
vt 0.136364 0.275556
vt 0.504786 0.431433
vt 0.528484 0.454164
vt 0.125001 0.216508
vt 0.136365 0.236191
vt 0.147728 0.255874
vt 0.159092 0.275556
vt 0.547310 0.428231
vt 0.567388 0.449954
vt 0.608024 0.449954
vt 0.632895 0.428232
vt 0.641758 0.454164
vt 0.215910 0.255874
vt 0.227274 0.275556
vt 0.204546 0.275556
vt 0.227273 0.236191
vt 0.238637 0.255874
vt 0.238637 0.216509
vt 0.250001 0.236191
vt 0.647515 0.477718
vt 0.668805 0.431433
vt 0.676548 0.458184
vt 0.676548 0.283352
vt 0.250001 0.275556
vt 0.704466 0.434089
vt 0.709761 0.460363
vt 0.709761 0.317393
vt 0.261364 0.255874
vt 0.272728 0.275556
vt 0.290240 0.434089
vt 0.328016 0.434766
vt 0.317393 0.460363
vt 0.356935 0.460363
vt 0.347601 0.482451
vt 0.738490 0.356935
vt 0.261364 0.216509
vt 0.272728 0.236191
vt 0.284092 0.255874
vt 0.295455 0.275556
vt 0.370361 0.434089
vt 0.399041 0.458184
vt 0.387041 0.481325
vt 0.427197 0.477717
vt 0.284092 0.216509
vt 0.295455 0.236191
vt 0.306819 0.255874
vt 0.318182 0.275556
vt 0.413771 0.431433
vt 0.440449 0.454163
vt 0.306819 0.216508
vt 0.318182 0.236191
vt 0.329546 0.255874
vt 0.340910 0.275556
vt 0.455006 0.428231
vt 0.478637 0.449953
vt 0.591101 0.429082
vt 0.534091 0.255874
vt 0.522728 0.236191
vt 0.511364 0.216508
vt 0.545455 0.275556
vt 0.556819 0.255874
vt 0.545455 0.236191
vt 0.568182 0.236191
vt 0.534091 0.216508
vt 0.556819 0.216508
vt 0.579546 0.216508
vt 0.707787 0.428232
vt 0.673283 0.429082
vt 0.715909 0.255874
vt 0.704546 0.236191
vt 0.693182 0.216508
vt 0.727273 0.275556
vt 0.738637 0.255874
vt 0.727273 0.236191
vt 0.750000 0.236191
vt 0.715909 0.216508
vt 0.738637 0.216508
vt 0.761364 0.216508
vt 0.326717 0.429082
vt 0.897727 0.255874
vt 0.886364 0.236191
vt 0.875000 0.216508
vt 0.292213 0.428232
vt 0.909091 0.275556
vt 0.920455 0.255874
vt 0.931818 0.275556
vt 0.943182 0.255874
vt 0.909091 0.236191
vt 0.931818 0.236191
vt 0.954545 0.236191
vt 0.897727 0.216508
vt 0.920455 0.216508
vt 0.943182 0.216508
vt 0.965909 0.216509
vt 0.591101 0.429082
vt 0.170455 0.255874
vt 0.159092 0.236191
vt 0.147728 0.216508
vt 0.181819 0.275556
vt 0.193183 0.255874
vt 0.181819 0.236191
vt 0.204546 0.236191
vt 0.170455 0.216508
vt 0.193183 0.216508
vt 0.215910 0.216508
vt 0.500000 0.429081
vt 0.352273 0.255874
vt 0.340910 0.236191
vt 0.329546 0.216508
vt 0.363637 0.275556
vt 0.375001 0.255874
vt 0.363637 0.236191
vt 0.386364 0.236191
vt 0.352273 0.216508
vt 0.375001 0.216508
vt 0.397728 0.216508
s 1
usemtl Material
f 14/190/185 233/191/186 15/192/187
f 13/193/188 235/194/189 14/190/190
f 12/195/191 238/196/192 13/193/193
f 14/190/185 235/194/196 233/191/186
f 235/194/196 236/201/197 233/191/186
f 13/193/188 238/196/200 235/194/189
f 238/196/200 239/205/201 235/194/189
f 235/194/196 239/205/202 236/201/197
f 239/205/202 240/206/203 236/201/197
f 12/195/191 242/211/206 238/196/192
f 242/211/206 243/212/207 238/196/192
f 238/196/200 243/212/208 239/205/201
f 243/212/208 244/213/209 239/205/201
f 239/205/202 244/213/210 240/206/203
f 244/213/210 245/214/211 240/206/203
f 242/211/206 247/220/214 243/212/207
f 247/220/214 248/221/215 243/212/207
f 243/212/208 248/221/216 244/213/209
f 248/221/216 249/222/217 244/213/209
f 244/213/210 249/222/218 245/214/211
f 249/222/218 250/223/219 245/214/211
f 247/220/214 51/227/222 248/221/215
f 51/227/222 50/228/223 248/221/215
f 248/221/216 50/228/224 249/222/217
f 50/228/224 49/229/225 249/222/217
f 249/222/218 49/229/226 250/223/219
f 49/229/226 48/230/227 250/223/219
f 54/236/233 253/237/234 55/238/235
f 53/239/236 255/240/237 54/236/238
f 52/241/239 258/242/240 53/239/241
f 54/236/233 255/240/244 253/237/234
f 255/240/244 256/247/245 253/237/234
f 53/239/236 258/242/248 255/240/237
f 258/242/248 259/251/249 255/240/237
f 255/240/244 259/251/250 256/247/245
f 259/251/250 260/252/251 256/247/245
f 52/241/239 262/256/254 258/242/240
f 262/256/254 263/257/255 258/242/240
f 258/242/248 263/257/256 259/251/249
f 263/257/256 264/258/257 259/251/249
f 259/251/250 264/258/258 260/252/251
f 264/258/258 265/259/259 260/252/251
f 262/256/254 267/263/262 263/257/255
f 267/263/262 268/264/263 263/257/255
f 263/257/256 268/264/264 264/258/257
f 268/264/264 269/265/265 264/258/257
f 264/258/258 269/265/266 265/259/259
f 269/265/266 270/266/267 265/259/259
f 267/263/262 41/271/270 268/264/263
f 41/271/270 40/272/271 268/264/263
f 268/264/264 40/272/272 269/265/265
f 40/272/272 39/273/273 269/265/265
f 269/265/266 39/273/274 270/266/267
f 39/273/274 38/274/275 270/266/267
f 44/285/281 273/286/282 45/287/283
f 43/288/284 275/289/285 44/285/286
f 42/290/287 278/291/288 43/288/289
f 44/285/281 275/289/292 273/286/282
f 275/289/292 276/296/293 273/286/282
f 43/288/284 278/291/296 275/289/285
f 278/291/296 279/300/297 275/289/285
f 275/289/292 279/300/298 276/296/293
f 279/300/298 280/301/299 276/296/293
f 42/290/287 282/305/302 278/291/288
f 282/305/302 283/306/303 278/291/288
f 278/291/296 283/306/304 279/300/297
f 283/306/304 284/307/305 279/300/297
f 279/300/298 284/307/306 280/301/299
f 284/307/306 285/308/307 280/301/299
f 282/305/302 287/312/310 283/306/303
f 287/312/310 288/313/311 283/306/303
f 283/306/304 288/313/312 284/307/305
f 288/313/312 289/314/313 284/307/305
f 284/307/306 289/314/314 285/308/307
f 289/314/314 290/315/315 285/308/307
f 287/312/310 31/319/318 288/313/311
f 31/319/318 30/320/319 288/313/311
f 288/313/312 30/320/320 289/314/313
f 30/320/320 29/321/321 289/314/313
f 289/314/314 29/321/322 290/315/315
f 29/321/322 28/322/323 290/315/315
f 34/329/329 293/330/330 35/331/331
f 33/332/332 295/333/333 34/329/334
f 32/334/335 298/335/336 33/332/337
f 34/329/329 295/333/340 293/330/330
f 295/333/340 296/342/341 293/330/330
f 33/332/332 298/335/344 295/333/333
f 298/335/344 299/346/345 295/333/333
f 295/333/340 299/346/346 296/342/341
f 299/346/346 300/347/347 296/342/341
f 32/334/335 302/351/350 298/335/336
f 302/351/350 303/352/351 298/335/336
f 298/335/344 303/352/352 299/346/345
f 303/352/352 304/353/353 299/346/345
f 299/346/346 304/353/354 300/347/347
f 304/353/354 305/354/355 300/347/347
f 302/351/350 307/357/358 303/352/351
f 307/357/358 308/358/359 303/352/351
f 303/352/352 308/358/360 304/353/353
f 308/358/360 309/359/361 304/353/353
f 304/353/354 309/359/362 305/354/355
f 309/359/362 310/360/363 305/354/355
f 307/357/358 21/363/366 308/358/359
f 21/363/366 20/364/367 308/358/359
f 308/358/360 20/364/368 309/359/361
f 20/364/368 19/365/369 309/359/361
f 309/359/362 19/365/370 310/360/363
f 19/365/370 18/366/371 310/360/363
f 24/372/377 313/373/378 25/374/379
f 23/375/380 315/376/381 24/372/382
f 22/377/383 318/378/384 23/375/385
f 24/372/377 315/376/388 313/373/378
f 315/376/388 316/383/389 313/373/378
f 23/375/380 318/378/392 315/376/381
f 318/378/392 319/387/393 315/376/381
f 315/376/388 319/387/394 316/383/389
f 319/387/394 320/388/395 316/383/389
f 22/377/383 322/395/398 318/378/384
f 322/395/398 323/396/399 318/378/384
f 318/378/392 323/396/400 319/387/393
f 323/396/400 324/397/401 319/387/393
f 319/387/394 324/397/402 320/388/395
f 324/397/402 325/398/403 320/388/395
f 322/395/398 327/403/406 323/396/399
f 327/403/406 328/404/407 323/396/399
f 323/396/400 328/404/408 324/397/401
f 328/404/408 329/405/409 324/397/401
f 324/397/402 329/405/410 325/398/403
f 329/405/410 330/406/411 325/398/403
f 327/403/406 11/409/414 328/404/407
f 11/409/414 10/410/415 328/404/407
f 328/404/408 10/410/416 329/405/409
f 10/410/416 9/411/417 329/405/409
f 329/405/410 9/411/418 330/406/411
f 9/411/418 8/412/419 330/406/411
f 49/229/226 333/416/423 48/230/227
f 50/228/224 335/417/424 49/229/225
f 51/227/222 338/418/425 50/228/223
f 48/230/227 333/416/423 332/419/426
f 333/416/423 334/420/427 332/419/426
f 332/419/426 334/420/427 55/238/235
f 334/420/427 54/236/233 55/238/235
f 49/229/225 335/417/424 333/416/428
f 335/417/424 336/421/429 333/416/428
f 333/416/428 336/421/429 334/420/430
f 336/421/429 337/422/431 334/420/430
f 334/420/430 337/422/431 54/236/238
f 337/422/431 53/239/236 54/236/238
f 50/228/223 338/418/425 335/417/432
f 338/418/425 339/423/433 335/417/432
f 335/417/432 339/423/433 336/421/434
f 339/423/433 340/424/435 336/421/434
f 336/421/434 340/424/435 337/422/436
f 340/424/435 341/425/437 337/422/436
f 337/422/436 341/425/437 53/239/241
f 341/425/437 52/241/239 53/239/241
f 39/273/274 343/428/439 38/274/275
f 40/272/272 345/429/440 39/273/273
f 41/271/270 348/430/441 40/272/271
f 38/274/275 343/428/439 342/431/442
f 343/428/439 344/432/443 342/431/442
f 342/431/442 344/432/443 45/287/283
f 344/432/443 44/285/281 45/287/283
f 39/273/273 345/429/440 343/428/444
f 345/429/440 346/433/445 343/428/444
f 343/428/444 346/433/445 344/432/446
f 346/433/445 347/434/447 344/432/446
f 344/432/446 347/434/447 44/285/286
f 347/434/447 43/288/284 44/285/286
f 40/272/271 348/430/441 345/429/448
f 348/430/441 349/435/449 345/429/448
f 345/429/448 349/435/449 346/433/450
f 349/435/449 350/436/451 346/433/450
f 346/433/450 350/436/451 347/434/452
f 350/436/451 351/437/453 347/434/452
f 347/434/452 351/437/453 43/288/289
f 351/437/453 42/290/287 43/288/289
f 29/321/322 353/439/455 28/322/323
f 30/320/320 355/440/456 29/321/321
f 31/319/318 358/441/457 30/320/319
f 28/322/323 353/439/455 352/443/458
f 353/439/455 354/444/459 352/443/458
f 352/443/458 354/444/459 35/445/331
f 354/444/459 34/446/329 35/445/331
f 29/321/321 355/440/456 353/439/460
f 355/440/456 356/447/461 353/439/460
f 353/439/460 356/447/461 354/444/462
f 356/447/461 357/448/463 354/444/462
f 354/444/462 357/448/463 34/446/334
f 357/448/463 33/449/332 34/446/334
f 30/320/319 358/441/457 355/440/464
f 358/441/457 359/450/465 355/440/464
f 355/440/464 359/450/465 356/447/466
f 359/450/465 360/451/467 356/447/466
f 356/447/466 360/451/467 357/448/468
f 360/451/467 361/452/469 357/448/468
f 357/448/468 361/452/469 33/449/337
f 361/452/469 32/453/335 33/449/337
f 19/365/370 363/455/471 18/366/371
f 20/364/368 365/456/472 19/365/369
f 21/363/366 368/457/473 20/364/367
f 18/366/371 363/455/471 362/458/474
f 363/455/471 364/459/475 362/458/474
f 362/458/474 364/459/475 25/374/379
f 364/459/475 24/372/377 25/374/379
f 19/365/369 365/456/472 363/455/476
f 365/456/472 366/460/477 363/455/476
f 363/455/476 366/460/477 364/459/478
f 366/460/477 367/461/479 364/459/478
f 364/459/478 367/461/479 24/372/382
f 367/461/479 23/375/380 24/372/382
f 20/364/367 368/457/473 365/456/480
f 368/457/473 369/462/481 365/456/480
f 365/456/480 369/462/481 366/460/482
f 369/462/481 370/463/483 366/460/482
f 366/460/482 370/463/483 367/461/484
f 370/463/483 371/464/485 367/461/484
f 367/461/484 371/464/485 23/375/385
f 371/464/485 22/377/383 23/375/385
f 9/411/418 373/466/487 8/412/419
f 10/410/416 375/467/488 9/411/417
f 11/409/414 378/468/489 10/410/415
f 8/412/419 373/466/487 372/469/490
f 373/466/487 374/470/491 372/469/490
f 372/469/490 374/470/491 15/192/187
f 374/470/491 14/190/185 15/192/187
f 9/411/417 375/467/488 373/466/492
f 375/467/488 376/471/493 373/466/492
f 373/466/492 376/471/493 374/470/494
f 376/471/493 377/472/495 374/470/494
f 374/470/494 377/472/495 14/190/190
f 377/472/495 13/193/188 14/190/190
f 10/410/415 378/468/489 375/467/496
f 378/468/489 379/473/497 375/467/496
f 375/467/496 379/473/497 376/471/498
f 379/473/497 380/474/499 376/471/498
f 376/471/498 380/474/499 377/472/500
f 380/474/499 381/475/501 377/472/500
f 377/472/500 381/475/501 13/193/193
f 381/475/501 12/195/191 13/193/193
f 388/190/502 422/191/503 389/192/504
f 387/193/505 423/194/506 388/190/507
f 386/195/508 425/196/509 387/193/510
f 388/190/502 423/194/511 422/191/503
f 423/194/511 424/201/512 422/191/503
f 387/193/505 425/196/513 423/194/506
f 425/196/513 426/205/514 423/194/506
f 423/194/511 426/205/515 424/201/512
f 426/205/515 427/206/516 424/201/512
f 386/195/508 428/211/517 425/196/509
f 428/211/517 429/212/518 425/196/509
f 425/196/513 429/212/519 426/205/514
f 429/212/519 430/213/520 426/205/514
f 426/205/515 430/213/521 427/206/516
f 430/213/521 431/214/522 427/206/516
f 428/211/517 432/220/523 429/212/518
f 432/220/523 433/221/524 429/212/518
f 429/212/519 433/221/525 430/213/520
f 433/221/525 434/222/526 430/213/520
f 430/213/521 434/222/527 431/214/522
f 434/222/527 435/223/528 431/214/522
f 432/220/523 417/227/529 433/221/524
f 417/227/529 416/228/530 433/221/524
f 433/221/525 416/228/531 434/222/526
f 416/228/531 415/229/532 434/222/526
f 434/222/527 415/229/533 435/223/528
f 415/229/533 414/230/534 435/223/528
f 420/236/535 436/237/536 421/238/537
f 419/239/538 437/240/539 420/236/540
f 418/241/541 439/242/542 419/239/543
f 420/236/535 437/240/544 436/237/536
f 437/240/544 438/247/545 436/237/536
f 419/239/538 439/242/546 437/240/539
f 439/242/546 440/251/547 437/240/539
f 437/240/544 440/251/548 438/247/545
f 440/251/548 441/252/549 438/247/545
f 418/241/541 442/256/550 439/242/542
f 442/256/550 443/257/551 439/242/542
f 439/242/546 443/257/552 440/251/547
f 443/257/552 444/258/553 440/251/547
f 440/251/548 444/258/554 441/252/549
f 444/258/554 445/259/555 441/252/549
f 442/256/550 446/263/556 443/257/551
f 446/263/556 447/264/557 443/257/551
f 443/257/552 447/264/558 444/258/553
f 447/264/558 448/265/559 444/258/553
f 444/258/554 448/265/560 445/259/555
f 448/265/560 449/266/561 445/259/555
f 446/263/556 409/271/562 447/264/557
f 409/271/562 408/272/563 447/264/557
f 447/264/558 408/272/564 448/265/559
f 408/272/564 407/273/565 448/265/559
f 448/265/560 407/273/566 449/266/561
f 407/273/566 406/274/567 449/266/561
f 412/285/568 450/286/569 413/287/570
f 411/288/571 451/289/572 412/285/573
f 410/290/574 453/291/575 411/288/576
f 412/285/568 451/289/577 450/286/569
f 451/289/577 452/296/578 450/286/569
f 411/288/571 453/291/579 451/289/572
f 453/291/579 454/300/580 451/289/572
f 451/289/577 454/300/581 452/296/578
f 454/300/581 455/301/582 452/296/578
f 410/290/574 456/305/583 453/291/575
f 456/305/583 457/306/584 453/291/575
f 453/291/579 457/306/585 454/300/580
f 457/306/585 458/307/586 454/300/580
f 454/300/581 458/307/587 455/301/582
f 458/307/587 459/308/588 455/301/582
f 456/305/583 460/312/589 457/306/584
f 460/312/589 461/313/590 457/306/584
f 457/306/585 461/313/591 458/307/586
f 461/313/591 462/314/592 458/307/586
f 458/307/587 462/314/593 459/308/588
f 462/314/593 463/315/594 459/308/588
f 460/312/589 401/319/595 461/313/590
f 401/319/595 400/320/596 461/313/590
f 461/313/591 400/320/597 462/314/592
f 400/320/597 399/321/598 462/314/592
f 462/314/593 399/321/599 463/315/594
f 399/321/599 398/322/600 463/315/594
f 404/329/601 464/330/602 405/331/603
f 403/332/604 465/333/605 404/329/606
f 402/334/607 467/335/608 403/332/609
f 404/329/601 465/333/610 464/330/602
f 465/333/610 466/342/611 464/330/602
f 403/332/604 467/335/612 465/333/605
f 467/335/612 468/346/613 465/333/605
f 465/333/610 468/346/614 466/342/611
f 468/346/614 469/347/615 466/342/611
f 402/334/607 470/351/616 467/335/608
f 470/351/616 471/352/617 467/335/608
f 467/335/612 471/352/618 468/346/613
f 471/352/618 472/353/619 468/346/613
f 468/346/614 472/353/620 469/347/615
f 472/353/620 473/354/621 469/347/615
f 470/351/616 474/357/622 471/352/617
f 474/357/622 475/358/623 471/352/617
f 471/352/618 475/358/624 472/353/619
f 475/358/624 476/359/625 472/353/619
f 472/353/620 476/359/626 473/354/621
f 476/359/626 477/360/627 473/354/621
f 474/357/622 393/363/628 475/358/623
f 393/363/628 392/364/629 475/358/623
f 475/358/624 392/364/630 476/359/625
f 392/364/630 391/365/631 476/359/625
f 476/359/626 391/365/632 477/360/627
f 391/365/632 390/366/633 477/360/627
f 396/372/634 478/373/635 397/374/636
f 395/375/637 479/376/638 396/372/639
f 394/377/640 481/378/641 395/375/642
f 396/372/634 479/376/643 478/373/635
f 479/376/643 480/383/644 478/373/635
f 395/375/637 481/378/645 479/376/638
f 481/378/645 482/387/646 479/376/638
f 479/376/643 482/387/647 480/383/644
f 482/387/647 483/388/648 480/383/644
f 394/377/640 484/395/649 481/378/641
f 484/395/649 485/396/650 481/378/641
f 481/378/645 485/396/651 482/387/646
f 485/396/651 486/397/652 482/387/646
f 482/387/647 486/397/653 483/388/648
f 486/397/653 487/398/654 483/388/648
f 484/395/649 488/403/655 485/396/650
f 488/403/655 489/404/656 485/396/650
f 485/396/651 489/404/657 486/397/652
f 489/404/657 490/405/658 486/397/652
f 486/397/653 490/405/659 487/398/654
f 490/405/659 491/406/660 487/398/654
f 488/403/655 385/409/661 489/404/656
f 385/409/661 384/410/662 489/404/656
f 489/404/657 384/410/663 490/405/658
f 384/410/663 383/411/664 490/405/658
f 490/405/659 383/411/665 491/406/660
f 383/411/665 382/412/666 491/406/660
f 415/229/533 493/416/667 414/230/534
f 416/228/531 495/417/668 415/229/532
f 417/227/529 498/418/669 416/228/530
f 414/230/534 493/416/667 492/419/670
f 493/416/667 494/420/671 492/419/670
f 492/419/670 494/420/671 421/238/537
f 494/420/671 420/236/535 421/238/537
f 415/229/532 495/417/668 493/416/672
f 495/417/668 496/421/673 493/416/672
f 493/416/672 496/421/673 494/420/674
f 496/421/673 497/422/675 494/420/674
f 494/420/674 497/422/675 420/236/540
f 497/422/675 419/239/538 420/236/540
f 416/228/530 498/418/669 495/417/676
f 498/418/669 499/423/677 495/417/676
f 495/417/676 499/423/677 496/421/678
f 499/423/677 500/424/679 496/421/678
f 496/421/678 500/424/679 497/422/680
f 500/424/679 501/425/681 497/422/680
f 497/422/680 501/425/681 419/239/543
f 501/425/681 418/241/541 419/239/543
f 407/273/566 503/428/682 406/274/567
f 408/272/564 505/429/683 407/273/565
f 409/271/562 508/430/684 408/272/563
f 406/274/567 503/428/682 502/431/685
f 503/428/682 504/432/686 502/431/685
f 502/431/685 504/432/686 413/287/570
f 504/432/686 412/285/568 413/287/570
f 407/273/565 505/429/683 503/428/687
f 505/429/683 506/433/688 503/428/687
f 503/428/687 506/433/688 504/432/689
f 506/433/688 507/434/690 504/432/689
f 504/432/689 507/434/690 412/285/573
f 507/434/690 411/288/571 412/285/573
f 408/272/563 508/430/684 505/429/691
f 508/430/684 509/435/692 505/429/691
f 505/429/691 509/435/692 506/433/693
f 509/435/692 510/436/694 506/433/693
f 506/433/693 510/436/694 507/434/695
f 510/436/694 511/437/696 507/434/695
f 507/434/695 511/437/696 411/288/576
f 511/437/696 410/290/574 411/288/576
f 399/321/599 513/439/697 398/322/600
f 400/320/597 515/440/698 399/321/598
f 401/319/595 518/441/699 400/320/596
f 398/322/600 513/439/697 512/443/700
f 513/439/697 514/444/701 512/443/700
f 512/443/700 514/444/701 405/445/603
f 514/444/701 404/446/601 405/445/603
f 399/321/598 515/440/698 513/439/702
f 515/440/698 516/447/703 513/439/702
f 513/439/702 516/447/703 514/444/704
f 516/447/703 517/448/705 514/444/704
f 514/444/704 517/448/705 404/446/606
f 517/448/705 403/449/604 404/446/606
f 400/320/596 518/441/699 515/440/706
f 518/441/699 519/450/707 515/440/706
f 515/440/706 519/450/707 516/447/708
f 519/450/707 520/451/709 516/447/708
f 516/447/708 520/451/709 517/448/710
f 520/451/709 521/452/711 517/448/710
f 517/448/710 521/452/711 403/449/609
f 521/452/711 402/453/607 403/449/609
f 391/365/632 523/455/712 390/366/633
f 392/364/630 525/456/713 391/365/631
f 393/363/628 528/457/714 392/364/629
f 390/366/633 523/455/712 522/458/715
f 523/455/712 524/459/716 522/458/715
f 522/458/715 524/459/716 397/374/636
f 524/459/716 396/372/634 397/374/636
f 391/365/631 525/456/713 523/455/717
f 525/456/713 526/460/718 523/455/717
f 523/455/717 526/460/718 524/459/719
f 526/460/718 527/461/720 524/459/719
f 524/459/719 527/461/720 396/372/639
f 527/461/720 395/375/637 396/372/639
f 392/364/629 528/457/714 525/456/721
f 528/457/714 529/462/722 525/456/721
f 525/456/721 529/462/722 526/460/723
f 529/462/722 530/463/724 526/460/723
f 526/460/723 530/463/724 527/461/725
f 530/463/724 531/464/726 527/461/725
f 527/461/725 531/464/726 395/375/642
f 531/464/726 394/377/640 395/375/642
f 383/411/665 533/466/727 382/412/666
f 384/410/663 535/467/728 383/411/664
f 385/409/661 538/468/729 384/410/662
f 382/412/666 533/466/727 532/469/730
f 533/466/727 534/470/731 532/469/730
f 532/469/730 534/470/731 389/192/504
f 534/470/731 388/190/502 389/192/504
f 383/411/664 535/467/728 533/466/732
f 535/467/728 536/471/733 533/466/732
f 533/466/732 536/471/733 534/470/734
f 536/471/733 537/472/735 534/470/734
f 534/470/734 537/472/735 388/190/507
f 537/472/735 387/193/505 388/190/507
f 384/410/662 538/468/729 535/467/736
f 538/468/729 539/473/737 535/467/736
f 535/467/736 539/473/737 536/471/738
f 539/473/737 540/474/739 536/471/738
f 536/471/738 540/474/739 537/472/740
f 540/474/739 541/475/741 537/472/740
f 537/472/740 541/475/741 387/193/510
f 541/475/741 386/195/508 387/193/510
f 389/192/504 422/191/503 424/201/512 427/206/516 431/214/522 435/223/528 414/230/534 492/419/670 421/238/537 436/237/536 438/247/545 441/252/549 445/259/555 449/266/561 406/274/567 502/431/685 413/287/570 450/286/569 452/296/578 455/301/582 459/308/588 463/315/594 398/322/600 512/443/700 405/331/603 464/330/602 466/342/611 469/347/615 473/354/621 477/360/627 390/366/633 522/458/715 397/374/636 478/373/635 480/383/644 483/388/648 487/398/654 491/406/660 382/412/666 532/469/730
usemtl Rainbow_Blend_Glass
f 1/1/1 63/2/2 98/3/3
f 2/4/4 70/5/5 112/6/6
f 3/7/7 77/8/8 119/9/9
f 4/1/10 84/10/11 126/3/12
f 5/11/13 91/12/14 99/13/15
f 105/14/16 120/15/17 6/16/18
f 104/17/19 127/18/20 105/14/16
f 103/19/21 128/20/22 104/17/19
f 102/21/23 130/22/24 103/19/21
f 101/23/25 133/24/26 102/21/23
f 100/25/27 137/26/28 101/23/25
f 99/27/15 142/28/29 100/25/27
f 105/14/16 127/18/20 120/15/17
f 127/18/20 121/29/30 120/15/17
f 104/17/19 128/20/22 127/18/20
f 128/20/22 129/30/31 127/18/20
f 127/18/20 129/30/31 121/29/30
f 129/30/31 122/31/32 121/29/30
f 103/19/21 130/22/24 128/20/22
f 130/22/24 131/32/33 128/20/22
f 128/20/22 131/32/33 129/30/31
f 131/32/33 132/33/34 129/30/31
f 129/30/31 132/33/34 122/31/32
f 132/33/34 123/34/35 122/31/32
f 102/21/23 133/24/26 130/22/24
f 133/24/26 134/35/36 130/22/24
f 130/22/24 134/35/36 131/32/33
f 134/35/36 135/36/37 131/32/33
f 131/32/33 135/36/37 132/33/34
f 135/36/37 136/37/38 132/33/34
f 132/33/34 136/37/38 123/34/35
f 136/37/38 124/38/39 123/34/35
f 101/23/25 137/26/28 133/24/26
f 137/26/28 138/39/40 133/24/26
f 133/24/26 138/39/40 134/35/36
f 138/39/40 139/40/41 134/35/36
f 134/35/36 139/40/41 135/36/37
f 139/40/41 140/41/42 135/36/37
f 135/36/37 140/41/42 136/37/38
f 140/41/42 141/42/43 136/37/38
f 136/37/38 141/42/43 124/38/39
f 141/42/43 125/43/44 124/38/39
f 100/25/27 142/28/29 137/26/28
f 142/28/29 143/44/45 137/26/28
f 137/26/28 143/44/45 138/39/40
f 143/44/45 144/45/46 138/39/40
f 138/39/40 144/45/46 139/40/41
f 144/45/46 145/46/47 139/40/41
f 139/40/41 145/46/47 140/41/42
f 145/46/47 146/47/48 140/41/42
f 140/41/42 146/47/48 141/42/43
f 146/47/48 147/48/49 141/42/43
f 141/42/43 147/48/49 125/43/44
f 147/48/49 126/49/12 125/43/44
f 99/27/15 91/50/14 142/28/29
f 91/50/14 90/51/50 142/28/29
f 142/28/29 90/51/50 143/44/45
f 90/51/50 89/52/51 143/44/45
f 143/44/45 89/52/51 144/45/46
f 89/52/51 88/53/52 144/45/46
f 144/45/46 88/53/52 145/46/47
f 88/53/52 87/54/53 145/46/47
f 145/46/47 87/54/53 146/47/48
f 87/54/53 86/55/54 146/47/48
f 146/47/48 86/55/54 147/48/49
f 86/55/54 85/56/55 147/48/49
f 147/48/49 85/56/55 126/49/12
f 85/2/55 4/1/10 126/3/12
f 120/15/17 113/57/56 6/16/18
f 121/29/30 148/58/57 120/15/17
f 122/31/32 149/59/58 121/29/30
f 123/34/35 151/60/59 122/31/32
f 124/38/39 154/61/60 123/34/35
f 125/43/44 158/62/61 124/38/39
f 126/49/12 163/63/62 125/43/44
f 120/15/17 148/58/57 113/57/56
f 148/58/57 114/64/63 113/57/56
f 121/29/30 149/59/58 148/58/57
f 149/59/58 150/65/64 148/58/57
f 148/58/57 150/65/64 114/64/63
f 150/65/64 115/66/65 114/64/63
f 122/31/32 151/60/59 149/59/58
f 151/60/59 152/67/66 149/59/58
f 149/59/58 152/67/66 150/65/64
f 152/67/66 153/68/67 150/65/64
f 150/65/64 153/68/67 115/66/65
f 153/68/67 116/69/68 115/66/65
f 123/34/35 154/61/60 151/60/59
f 154/61/60 155/70/69 151/60/59
f 151/60/59 155/70/69 152/67/66
f 155/70/69 156/71/70 152/67/66
f 152/67/66 156/71/70 153/68/67
f 156/71/70 157/72/71 153/68/67
f 153/68/67 157/72/71 116/69/68
f 157/72/71 117/73/72 116/69/68
f 124/38/39 158/62/61 154/61/60
f 158/62/61 159/74/73 154/61/60
f 154/61/60 159/74/73 155/70/69
f 159/74/73 160/75/74 155/70/69
f 155/70/69 160/75/74 156/71/70
f 160/75/74 161/76/75 156/71/70
f 156/71/70 161/76/75 157/72/71
f 161/76/75 162/77/76 157/72/71
f 157/72/71 162/77/76 117/73/72
f 162/77/76 118/78/77 117/73/72
f 125/43/44 163/63/62 158/62/61
f 163/63/62 164/79/78 158/62/61
f 158/62/61 164/79/78 159/74/73
f 164/79/78 165/80/79 159/74/73
f 159/74/73 165/80/79 160/75/74
f 165/80/79 166/81/80 160/75/74
f 160/75/74 166/81/80 161/76/75
f 166/81/80 167/82/81 161/76/75
f 161/76/75 167/82/81 162/77/76
f 167/82/81 168/83/82 162/77/76
f 162/77/76 168/83/82 118/78/77
f 168/83/82 119/9/9 118/78/77
f 126/49/12 84/84/11 163/63/62
f 84/84/11 83/85/83 163/63/62
f 163/63/62 83/85/83 164/79/78
f 83/85/83 82/86/84 164/79/78
f 164/79/78 82/86/84 165/80/79
f 82/86/84 81/87/85 165/80/79
f 165/80/79 81/87/85 166/81/80
f 81/87/85 80/88/86 166/81/80
f 166/81/80 80/88/86 167/82/81
f 80/88/86 79/89/87 167/82/81
f 167/82/81 79/89/87 168/83/82
f 79/89/87 78/90/88 168/83/82
f 168/83/82 78/90/88 119/9/9
f 78/90/88 3/7/7 119/9/9
f 113/57/56 106/91/89 6/16/18
f 114/64/63 169/92/90 113/57/56
f 115/66/65 170/93/91 114/64/63
f 116/69/68 172/94/92 115/66/65
f 117/73/72 175/95/93 116/69/68
f 118/78/77 179/96/94 117/73/72
f 119/9/9 184/97/95 118/78/77
f 113/57/56 169/92/90 106/91/89
f 169/92/90 107/98/96 106/91/89
f 114/64/63 170/93/91 169/92/90
f 170/93/91 171/99/97 169/92/90
f 169/92/90 171/99/97 107/98/96
f 171/99/97 108/100/98 107/98/96
f 115/66/65 172/94/92 170/93/91
f 172/94/92 173/101/99 170/93/91
f 170/93/91 173/101/99 171/99/97
f 173/101/99 174/102/100 171/99/97
f 171/99/97 174/102/100 108/100/98
f 174/102/100 109/103/101 108/100/98
f 116/69/68 175/95/93 172/94/92
f 175/95/93 176/104/102 172/94/92
f 172/94/92 176/104/102 173/101/99
f 176/104/102 177/105/103 173/101/99
f 173/101/99 177/105/103 174/102/100
f 177/105/103 178/106/104 174/102/100
f 174/102/100 178/106/104 109/103/101
f 178/106/104 110/107/105 109/103/101
f 117/73/72 179/96/94 175/95/93
f 179/96/94 180/108/106 175/95/93
f 175/95/93 180/108/106 176/104/102
f 180/108/106 181/109/107 176/104/102
f 176/104/102 181/109/107 177/105/103
f 181/109/107 182/110/108 177/105/103
f 177/105/103 182/110/108 178/106/104
f 182/110/108 183/111/109 178/106/104
f 178/106/104 183/111/109 110/107/105
f 183/111/109 111/112/110 110/107/105
f 118/78/77 184/97/95 179/96/94
f 184/97/95 185/113/111 179/96/94
f 179/96/94 185/113/111 180/108/106
f 185/113/111 186/114/112 180/108/106
f 180/108/106 186/114/112 181/109/107
f 186/114/112 187/115/113 181/109/107
f 181/109/107 187/115/113 182/110/108
f 187/115/113 188/116/114 182/110/108
f 182/110/108 188/116/114 183/111/109
f 188/116/114 189/117/115 183/111/109
f 183/111/109 189/117/115 111/112/110
f 189/117/115 112/6/6 111/112/110
f 119/9/9 77/8/8 184/97/95
f 77/8/8 76/118/116 184/97/95
f 184/97/95 76/118/116 185/113/111
f 76/118/116 75/119/117 185/113/111
f 185/113/111 75/119/117 186/114/112
f 75/119/117 74/120/118 186/114/112
f 186/114/112 74/120/118 187/115/113
f 74/120/118 73/121/119 187/115/113
f 187/115/113 73/121/119 188/116/114
f 73/121/119 72/122/120 188/116/114
f 188/116/114 72/122/120 189/117/115
f 72/122/120 71/123/121 189/117/115
f 189/117/115 71/123/121 112/6/6
f 71/123/121 2/4/4 112/6/6
f 106/91/89 92/124/122 6/16/18
f 107/98/96 190/125/123 106/91/89
f 108/100/98 191/126/124 107/98/96
f 109/103/101 193/127/125 108/100/98
f 110/107/105 196/128/126 109/103/101
f 111/112/110 200/129/127 110/107/105
f 112/6/6 205/130/128 111/112/110
f 106/91/89 190/125/123 92/124/122
f 190/125/123 93/131/129 92/124/122
f 107/98/96 191/126/124 190/125/123
f 191/126/124 192/132/130 190/125/123
f 190/125/123 192/132/130 93/131/129
f 192/132/130 94/133/131 93/131/129
f 108/100/98 193/127/125 191/126/124
f 193/127/125 194/134/132 191/126/124
f 191/126/124 194/134/132 192/132/130
f 194/134/132 195/135/133 192/132/130
f 192/132/130 195/135/133 94/133/131
f 195/135/133 95/136/134 94/133/131
f 109/103/101 196/128/126 193/127/125
f 196/128/126 197/137/135 193/127/125
f 193/127/125 197/137/135 194/134/132
f 197/137/135 198/138/136 194/134/132
f 194/134/132 198/138/136 195/135/133
f 198/138/136 199/139/137 195/135/133
f 195/135/133 199/139/137 95/136/134
f 199/139/137 96/140/138 95/136/134
f 110/107/105 200/129/127 196/128/126
f 200/129/127 201/141/139 196/128/126
f 196/128/126 201/141/139 197/137/135
f 201/141/139 202/142/140 197/137/135
f 197/137/135 202/142/140 198/138/136
f 202/142/140 203/143/141 198/138/136
f 198/138/136 203/143/141 199/139/137
f 203/143/141 204/144/142 199/139/137
f 199/139/137 204/144/142 96/140/138
f 204/144/142 97/145/143 96/140/138
f 111/112/110 205/130/128 200/129/127
f 205/130/128 206/146/144 200/129/127
f 200/129/127 206/146/144 201/141/139
f 206/146/144 207/147/145 201/141/139
f 201/141/139 207/147/145 202/142/140
f 207/147/145 208/148/146 202/142/140
f 202/142/140 208/148/146 203/143/141
f 208/148/146 209/149/147 203/143/141
f 203/143/141 209/149/147 204/144/142
f 209/149/147 210/150/148 204/144/142
f 204/144/142 210/150/148 97/145/143
f 210/150/148 98/151/3 97/145/143
f 112/6/6 70/5/5 205/130/128
f 70/5/5 69/152/149 205/130/128
f 205/130/128 69/152/149 206/146/144
f 69/152/149 68/153/150 206/146/144
f 206/146/144 68/153/150 207/147/145
f 68/153/150 67/154/151 207/147/145
f 207/147/145 67/154/151 208/148/146
f 67/154/151 66/155/152 208/148/146
f 208/148/146 66/155/152 209/149/147
f 66/155/152 65/156/153 209/149/147
f 209/149/147 65/156/153 210/150/148
f 65/156/153 64/157/154 210/150/148
f 210/150/148 64/157/154 98/151/3
f 64/10/154 1/1/1 98/3/3
f 92/124/122 105/14/16 6/16/18
f 93/131/129 211/158/155 92/124/122
f 94/133/131 212/159/156 93/131/129
f 95/136/134 214/160/157 94/133/131
f 96/140/138 217/161/158 95/136/134
f 97/145/143 221/162/159 96/140/138
f 98/151/3 226/163/160 97/145/143
f 92/124/122 211/158/155 105/14/16
f 211/158/155 104/17/19 105/14/16
f 93/131/129 212/159/156 211/158/155
f 212/159/156 213/164/161 211/158/155
f 211/158/155 213/164/161 104/17/19
f 213/164/161 103/19/21 104/17/19
f 94/133/131 214/160/157 212/159/156
f 214/160/157 215/165/162 212/159/156
f 212/159/156 215/165/162 213/164/161
f 215/165/162 216/166/163 213/164/161
f 213/164/161 216/166/163 103/19/21
f 216/166/163 102/21/23 103/19/21
f 95/136/134 217/161/158 214/160/157
f 217/161/158 218/167/164 214/160/157
f 214/160/157 218/167/164 215/165/162
f 218/167/164 219/168/165 215/165/162
f 215/165/162 219/168/165 216/166/163
f 219/168/165 220/169/166 216/166/163
f 216/166/163 220/169/166 102/21/23
f 220/169/166 101/23/25 102/21/23
f 96/140/138 221/162/159 217/161/158
f 221/162/159 222/170/167 217/161/158
f 217/161/158 222/170/167 218/167/164
f 222/170/167 223/171/168 218/167/164
f 218/167/164 223/171/168 219/168/165
f 223/171/168 224/172/169 219/168/165
f 219/168/165 224/172/169 220/169/166
f 224/172/169 225/173/170 220/169/166
f 220/169/166 225/173/170 101/23/25
f 225/173/170 100/25/27 101/23/25
f 97/145/143 226/163/160 221/162/159
f 226/163/160 227/174/171 221/162/159
f 221/162/159 227/174/171 222/170/167
f 227/174/171 228/175/172 222/170/167
f 222/170/167 228/175/172 223/171/168
f 228/175/172 229/176/173 223/171/168
f 223/171/168 229/176/173 224/172/169
f 229/176/173 230/177/174 224/172/169
f 224/172/169 230/177/174 225/173/170
f 230/177/174 231/178/175 225/173/170
f 225/173/170 231/178/175 100/25/27
f 231/178/175 99/27/15 100/25/27
f 98/151/3 63/179/2 226/163/160
f 63/179/2 62/180/176 226/163/160
f 226/163/160 62/180/176 227/174/171
f 62/180/176 61/181/177 227/174/171
f 227/174/171 61/181/177 228/175/172
f 61/181/177 60/182/178 228/175/172
f 228/175/172 60/182/178 229/176/173
f 60/182/178 59/183/179 229/176/173
f 229/176/173 59/183/179 230/177/174
f 59/183/179 58/184/180 230/177/174
f 230/177/174 58/184/180 231/178/175
f 58/184/180 57/185/181 231/178/175
f 231/178/175 57/185/181 99/27/15
f 57/186/181 5/11/13 99/13/15
f 16/187/182 91/12/14 5/11/13
f 15/188/183 232/189/184 16/187/182
f 16/187/182 232/189/184 91/12/14
f 232/189/184 90/197/50 91/12/14
f 15/188/183 233/198/194 232/189/184
f 233/198/194 234/199/195 232/189/184
f 232/189/184 234/199/195 90/197/50
f 234/199/195 89/200/51 90/197/50
f 233/198/194 236/202/198 234/199/195
f 236/202/198 237/203/199 234/199/195
f 234/199/195 237/203/199 89/200/51
f 237/204/199 88/53/52 89/52/51
f 236/202/198 240/207/204 237/203/199
f 240/207/204 241/208/205 237/203/199
f 237/203/199 241/208/205 88/209/52
f 241/210/205 87/54/53 88/53/52
f 240/207/204 245/215/212 241/208/205
f 245/216/212 246/217/213 241/218/205
f 241/210/205 246/219/213 87/54/53
f 246/219/213 86/55/54 87/54/53
f 245/216/212 250/224/220 246/217/213
f 250/224/220 251/225/221 246/217/213
f 246/217/213 251/225/221 86/226/54
f 251/225/221 85/2/55 86/226/54
f 250/224/220 48/231/228 251/225/221
f 48/231/228 47/232/229 251/225/221
f 251/225/221 47/232/229 85/2/55
f 47/232/229 4/1/10 85/2/55
f 56/233/230 84/10/11 4/1/10
f 55/234/231 252/235/232 56/233/230
f 56/233/230 252/235/232 84/10/11
f 252/235/232 83/243/83 84/10/11
f 55/234/231 253/244/242 252/235/232
f 253/244/242 254/245/243 252/235/232
f 252/235/232 254/245/243 83/243/83
f 254/245/243 82/246/84 83/243/83
f 253/244/242 256/248/246 254/245/243
f 256/248/246 257/249/247 254/245/243
f 254/245/243 257/249/247 82/246/84
f 257/249/247 81/250/85 82/246/84
f 256/248/246 260/253/252 257/249/247
f 260/253/252 261/254/253 257/249/247
f 257/249/247 261/254/253 81/250/85
f 261/254/253 80/255/86 81/250/85
f 260/253/252 265/260/260 261/254/253
f 265/260/260 266/261/261 261/254/253
f 261/254/253 266/261/261 80/255/86
f 266/262/261 79/89/87 80/88/86
f 265/260/260 270/267/268 266/261/261
f 270/267/268 271/268/269 266/261/261
f 266/261/261 271/268/269 79/269/87
f 271/270/269 78/90/88 79/89/87
f 270/267/268 38/275/276 271/268/269
f 38/275/276 37/276/277 271/268/269
f 271/277/269 37/278/277 78/279/88
f 37/278/277 3/280/7 78/279/88
f 46/281/278 77/282/8 3/280/7
f 45/283/279 272/284/280 46/281/278
f 46/281/278 272/284/280 77/282/8
f 272/284/280 76/292/116 77/282/8
f 45/283/279 273/293/290 272/284/280
f 273/293/290 274/294/291 272/284/280
f 272/284/280 274/294/291 76/292/116
f 274/294/291 75/295/117 76/292/116
f 273/293/290 276/297/294 274/294/291
f 276/297/294 277/298/295 274/294/291
f 274/294/291 277/298/295 75/295/117
f 277/298/295 74/299/118 75/295/117
f 276/297/294 280/302/300 277/298/295
f 280/302/300 281/303/301 277/298/295
f 277/298/295 281/303/301 74/299/118
f 281/303/301 73/304/119 74/299/118
f 280/302/300 285/309/308 281/303/301
f 285/309/308 286/310/309 281/303/301
f 281/303/301 286/310/309 73/304/119
f 286/310/309 72/311/120 73/304/119
f 285/309/308 290/316/316 286/310/309
f 290/316/316 291/317/317 286/310/309
f 286/310/309 291/317/317 72/311/120
f 291/317/317 71/318/121 72/311/120
f 290/316/316 28/323/324 291/317/317
f 28/323/324 27/324/325 291/317/317
f 291/317/317 27/324/325 71/318/121
f 27/324/325 2/325/4 71/318/121
f 36/326/326 70/327/5 2/325/4
f 35/275/327 292/328/328 36/276/326
f 36/326/326 292/336/328 70/327/5
f 292/337/328 69/152/149 70/5/5
f 35/275/327 293/338/338 292/328/328
f 293/338/338 294/339/339 292/328/328
f 292/328/328 294/339/339 69/340/149
f 294/341/339 68/153/150 69/152/149
f 293/338/338 296/343/342 294/339/339
f 296/343/342 297/344/343 294/339/339
f 294/339/339 297/344/343 68/255/150
f 297/344/343 67/345/151 68/255/150
f 296/343/342 300/348/348 297/344/343
f 300/348/348 301/349/349 297/344/343
f 297/344/343 301/349/349 67/345/151
f 301/349/349 66/350/152 67/345/151
f 300/348/348 305/355/356 301/349/349
f 305/355/356 306/356/357 301/349/349
f 301/349/349 306/356/357 66/350/152
f 306/356/357 65/243/153 66/350/152
f 305/355/356 310/361/364 306/356/357
f 310/361/364 311/362/365 306/356/357
f 306/356/357 311/362/365 65/243/153
f 311/362/365 64/10/154 65/243/153
f 310/361/364 18/367/372 311/362/365
f 18/367/372 17/368/373 311/362/365
f 311/362/365 17/368/373 64/10/154
f 17/368/373 1/1/1 64/10/154
f 26/369/374 63/2/2 1/1/1
f 25/370/375 312/371/376 26/369/374
f 26/369/374 312/371/376 63/2/2
f 312/371/376 62/379/176 63/2/2
f 25/370/375 313/380/386 312/371/376
f 313/380/386 314/381/387 312/371/376
f 312/371/376 314/381/387 62/379/176
f 314/382/387 61/181/177 62/180/176
f 313/380/386 316/384/390 314/381/387
f 316/384/390 317/385/391 314/381/387
f 314/382/387 317/386/391 61/181/177
f 317/386/391 60/182/178 61/181/177
f 316/389/390 320/390/396 317/391/391
f 320/390/396 321/392/397 317/391/391
f 317/391/391 321/392/397 60/393/178
f 321/394/397 59/183/179 60/182/178
f 320/390/396 325/399/404 321/392/397
f 325/399/404 326/400/405 321/392/397
f 321/392/397 326/400/405 59/401/179
f 326/400/405 58/402/180 59/401/179
f 325/399/404 330/407/412 326/400/405
f 330/407/412 331/408/413 326/400/405
f 326/400/405 331/408/413 58/402/180
f 331/408/413 57/186/181 58/402/180
f 330/407/412 8/413/420 331/408/413
f 8/413/420 7/414/421 331/408/413
f 331/408/413 7/414/421 57/186/181
f 7/414/421 5/11/13 57/186/181
f 47/232/229 56/233/230 4/1/10
f 48/231/228 332/415/422 47/232/229
f 47/232/229 332/415/422 56/233/230
f 332/415/422 55/234/231 56/233/230
f 37/278/277 46/281/278 3/280/7
f 38/426/276 342/427/438 37/278/277
f 37/278/277 342/427/438 46/281/278
f 342/427/438 45/283/279 46/281/278
f 27/324/325 36/326/326 2/325/4
f 28/323/324 352/438/454 27/324/325
f 27/324/325 352/438/454 36/326/326
f 352/438/454 35/442/327 36/326/326
f 17/368/373 26/369/374 1/1/1
f 18/367/372 362/454/470 17/368/373
f 17/368/373 362/454/470 26/369/374
f 362/454/470 25/370/375 26/369/374
f 7/414/421 16/187/182 5/11/13
f 8/413/420 372/465/486 7/414/421
f 7/414/421 372/465/486 16/187/182
f 372/465/486 15/188/183 16/187/182
